<mxfile host="65bd71144e">
    <diagram id="Xf2CmDICwdEtI_wOLt3K" name="ページ1">
        <mxGraphModel dx="832" dy="563" grid="1" gridSize="10" guides="1" tooltips="1" connect="1" arrows="1" fold="1" page="1" pageScale="1" pageWidth="827" pageHeight="1169" math="0" shadow="0">
            <root>
                <mxCell id="0"/>
                <mxCell id="1" parent="0"/>
                <mxCell id="2" value="" style="shape=image;verticalLabelPosition=bottom;labelBackgroundColor=default;verticalAlign=top;aspect=fixed;imageAspect=0;image=data:image/png,iVBORw0KGgoAAAANSUhEUgAAAcoAAAFiCAYAAAB205hfAAAAAXNSR0IArs4c6QAAAARnQU1BAACxjwv8YQUAAAAJcEhZcwAADsMAAA7DAcdvqGQAALmoSURBVHhe7N13PJbf/wfw120mJE1SNLT3HlJ3e6qU9t60aXxoGG2V9p5KQ0MpUlK5UyRNIy1KRmb2Hvf5/fHl+rmOkQol5/l4eDy63+/3dSXkfZ/rOtc5AkIIAcMwDMMwhZKgAwzDMAzD/D/WKBmGYRimGKxRMgzDMEwxWKNkGIZhmGII6Mk8KSkpGDZsGOrVq5c/zDAMJTU1Ferq6oiJiaFTDMP8pRISEtCiRQvs2bOHThWp0EY5ceJEXLlyJX+YYRhKaGgoLCwscOLECTrFMMxf6u7du3j//j3Wrl1Lp4pUoFFmZWVh0qRJsLOzyx9mGIYSFRWFtWvX4uTJk3SKYZi/lEgkwqtXr2BkZESnisTuUTIMwzBMMVijZBiGYZhisEbJMAzDMMVgjZJhGIZhilGqjdLf3x/x8fF0uER8fHyQlJREh3/o+/fvyMnJAQCIxWL4+/vTJQCA7OxsmJubIyAggE5BLBbj27dvdLhUxMTEwNraGk+ePKFT5WrHjh0wNzeHubn5T02LLs7Bgwdx6dIlOlxAdnY27t69S4cZhmEqhFJrlM+fP0fPnj1x6NAhOoU9e/agdevWUFBQQP/+/QttGsbGxtDS0kJUVBSdKpaRkRG0tbWRk5ODr1+/onXr1vjy5QtdhuzsbFhYWCA0NBRRUVGYM2cOzM3NMWnSJNSpUwe9evVCamoqfViJBQcHQyQSFfhYuHAhLl++jOnTp+PTp0/0YQCAJ0+e4PPnz3S4RGJjYxEUFESHC9ixYwcuX74MkUgET09POl2o9PT0It94AMD169cL/V7SXrx4gWHDhsHHx4dO8bx//x5isZgOl6rk5GQIBAJcvnyZTv2Vtm3bhmPHjtHhQuXk5GDUqFE//X+orFhYWCAsLIwOM0zFQyiZmZlk7NixdLhYwcHBRFlZmSxcuJCIxWJe7vr16wQA2bdvH3F1dSULFy4kcnJyJCgoiFeXlJREunfvTnr27Emys7N5uaL4+voSSUlJcv/+fS7Wr18/snjxYl7dmzdviLOzMwFA9uzZQxwcHAgAsmbNGmJvb0/evHlDUlJSeMcMGDCAACj0w9DQkFdLCCHbtm0rUAeAXL9+nbRp04acOnWKREVFcfULFiwg69evJ4QQoqSkRHbt2pXvbP/v+fPnxM7Ojpw5c4bs37+fbNmyhejr65M+ffqQ2rVrEwBk4sSJ9GEF1KxZk5w7d44XCwoKIjdv3iTnz58nhw8fJpaWlmT16tVkxIgRpFGjRkQgEJCqVavyjtm5cyextbUle/bsIR07diS1atUiffv2Ja1atSJ3797l1bq7uxNXV1cyf/58oqysTCwsLMijR4+IlZUVuXz5coHvc7Vq1cjSpUt5MUII8fLyIrGxsXSYREVFFfh65308ePCALieEEJKSkkIAkFu3btGpApKSkoirqyvJysqiU4QQQiIjI8ncuXPpcImkpKQQkUhEjhw5QubPn09WrVpFl3CMjY3JnTt3iL29PZ0qYOrUqXSI5927d+TChQt0uFg5OTnkwoUL5NOnT4Tk/ty4urqStLQ0upRnyZIlJDo6mg4zzB/l6upKrKys6HCxSqVR6unpkd69e5OcnBw6RSwsLMi0adO4158/fyYAyKVLl3h1JPcXn7KyMjly5AidKiA+Pp60a9eOzJkzhxd3c3Mj0tLSvF/aAwcO5P0SbdKkCQFA3r59yzs2v7NnzxIzMzOyaNEiAoBMmTKFmJmZETMzswIN4UcSExPpEOnUqRNZsGABIYQQRUVFcvjwYbqEEELI2LFjCQAiEAiIuro6qVGjBgFApk2bRm7fvk2uXr1K3rx5Qx9WQGGN8ty5c9zXpGbNmkRDQ4MAIN26dSPnz58nV65cIa6urrzv65QpU0jfvn1J3759SY8ePQgAMn/+fGJpaUk+fPhAIiIiuNrGjRvzvu6ysrLk3Llz5MiRI6Rt27ZEQ0OD2NjYEEIIycrKIgDI+fPnuePztGrVivTt27dAY01JSeG+J/TH58+febV5cnJyivz5o7148YIAIN+/f6dThPxEo3RyciJLliwhBgYGZOfOneTly5fk+PHj5ODBgyQnJ4cEBwcX+B76+/uTixcvkg0bNpDx48eTY8eOEZL7b6bf1L148YK4urqS7du3E11dXbJhwwZCCCFfvnwhR48e5X1PCCFkxIgRvNd5PD09ibW1NR0mJPf7c+rUKdKjRw8yadIkYmZmRl69ekWX8RgaGpK4uDg6zDB/1B9plElJSQQAuXnzJp3iiYmJIa6urmTOnDlEIBAU2aSWLVtGevXqRYd5vn//Trp27Uq6dOlCkpOT6TQ5efIkqVKlCtmxYwfJzMwkJN8vPVdXVxISEkIAkK5du3K/9Pv27VvoSNHPz48AILdv36ZThBBCEhISCvySLuwjMDCQd1xJG+Xnz5/J58+fSVZWFnny5AmRlJTkmouHhwdp3759iX7pF9Yov3//Tt6+fUtSU1NJSkoK0dTUJBMmTCDZ2dkkMjKSDBo0iKxfv577GicnJxNXV1dy69Ytsm3bNrJhwwYiISFBmjdvTvr27Uvq1q1LxowZw53/+fPn5MqVKwQA8fX15eIeHh4kODiYODo6cp9TcnJykV9nHx8fIiEhQbZs2UKnfomioiLZvXs3uXHjBpk3bx5p1KhRob/QS6tRktymlefRo0fk+vXrhOT+HU5OTmT79u3E1dU13xH/Lysri6xbt444ODiQZcuWkUOHDvHySUlJxNPTk2zYsIE3+k1JSSGOjo6kUaNGxM/Pj4ubmJhwf6adOnWKnDp1ig4TQgj5+vXrD0eR+ZmZmXFf1+DgYDJ//ny6hGHK3R9plP7+/gQACQ4OplM8t27d4kYWxV1msrGxIXXq1KHDPGfOnCFNmjQhBw8e5DW6/B8XL14kDRo04P6jrlu3jgAgTZs25S4HW1tbE3NzcyItLU1cXV25d/U7duzgztO1a1cCgLRt25Z3/nXr1hGSOwqm/+5atWoRZWVlXuzFixe8f0OrVq3I6tWrCcm95Jh/FB0ZGVnoiEhHR4f73nz58oVUq1aNrFmzhqxdu7bAJW9aYY0yvxMnTpDq1atzo9+uXbuSiRMnkqVLl5KwsDBCCCGhoaHc91BSUpKoqalxX58pU6YQd3d3kpCQwDuvqakp0dLS4sXU1NTIiRMneLGEhASCYi6Zzp8/nygoKJDU1FQ69VPev39PatasSQAQVVVVMm3aNLJv375CL+2WZqPMj/5PumnTJuLt7U0iIyMJIYSkp6cTCwsL4uzsTKytrcmqVauIjo4OcXd35x2X38ePH3kNNDo6mlhaWpKcnBwSGhpKnj59yuXMzMy4P3/8+JH7MyGEiMVi0rlzZ5KUlMSL/wqRSEROnTpFbG1tibW1dZHfW4YpT3+kUX78+JEA4L1jLkxMTAw5efIkGT16NJGSkiIvX76kSwghhFy8eJHUrl2bDheQkJBA3N3diZmZGZGQkCBjxowhZmZmREdHh8jLyxOS75JnQkICd8mySZMmpGXLlgQAeffuHbl69SqRlZXlnfvmzZvcSLCwS69mZmbFjuL69+9Pxo8fT4c5WVlZpEqVKtwoMn+jjIuLI23btiW6urrUUYQ0bdqU9w329/cnhoaG3Ki5OD9qlCtXriR9+vThXickJJBVq1YV+EVKct8cHDlyhPtaNGjQgCgpKRGRSMSrCwsLIzIyMtwIOI+amlqBUUtaWhoBQJydnXnxPG5ubgQAuXLlChe7d+8euXfvHq+uOI6OjkRKSoqMGDGCPHjwoNBbBfmVVaPMu4z6MxITE3m3MGizZs3iXV158OABefToEa8mz5o1awghhAQGBhZ6r9bU1PS3m9qXL1/IvHnzyLVr1374Jo5hytMfaZQZGRlEVlaWXLt2jU4RQgjR1dUlGzdu5MXq1atX5KhyxYoVRCgU0uEieXl5EQDEx8eHEELI3r17eSPSzMxMIhQKyeDBgwkA4uLiQm7evEkAkICAgEIbZX4/uvRamNq1a3O/jArz6NEjAoC7HKukpESOHDlCvnz5Qjp27EhUVVULHVF26tTpl34xkxI0SjMzM6KiolLgPiAtLCyM1K1bl7tvmPehrq5Ozpw5w6udNWsWUVVVJZmZmeTdu3dk48aNxMzMjCgqKpJt27bxagkhRFZWllhbW5OsrCwyYsQIboRFct9cSEhI8I4bMmTIDyev5Pn27RuRk5MjW7dupVNFKqtGWdzPRn5eXl7EwcGBPHjwgNy+fZv069evwP8lkjtyW7lyJS/28uVL7vIuzcjIiGRnZ5P169cX+v0OCgoi/v7+3Ov8k9BKIiIigqxfv75URqUMU9p+pVH+9uMhMjIymDhxIvbu3Vvo1P7k5GQcOHAA0dHRAICAgAB8//4dderUoUsRExODs2fPYsaMGXSqUJmZmVixYgUmTZqEtm3bArlbqMjLy3M1YrEYkZGR2LFjBwBASkoKVapUAYASbSUmIfG/L9GbN294j30U9dzlw4cPER0djZEjR9IpjoWFBQYPHozGjRsDAAghuHfvHtq3b4/ExES4ubmhUaNG9GGYOnUqzp49i1evXtGp3zZ+/HhER0dj165ddIrnxIkTkJaWhq+vL+/r8fXrV8yaNYtXKyEhAQsLCyQkJEBLSwtXrlyBSCRCWloaTExM0LFjR3h4eHD1HTt2hKurK3bu3Inbt2/j48ePXE5KSgqhoaEwNjbmYgoKCnj69CmuX79e4LEckUjEe9zH19cXaWlpMDAw4GJ/SsuWLWFubk6HeV68eAEpKSmMHDkS/fv3x/Dhw/Hw4UOMHj2aLsWxY8ewatUqAEBISAgePHiAly9f4tWrV4X+n5w0aRJMTU3Rpk0bSEpK0mloaGigZcuW3GuRSITIyEheTXFu3ryJTZs2QUFBgU4xTMVEd86fHVGS3HegysrKRF9fv8BllsDAQKKpqUkkJSVJ+/btiUAgII0bNy4wEzQ+Pp506dKlxI+HfPjwgRvNpKSkkNjYWPLw4UPSo0cP0qZNG15tcnIySU1NJcidzDNy5EhuwtCPRpQxMTFEIBAQUI8f0PfYSO6/oXHjxqRz584Fvg55DA0NSdWqVbnJFZmZmaRWrVoEAJk0aVKhk0ryiMVismzZMiIpKUmEQiFZu3YtuXHjBl32y+zs7IicnBxp06YNWbFiRaGTZ2xtbYm0tDQ5cOAAcXV15T48PT3pUs6jR4+IhIQEcXNzI+/fvycAyOrVq4m6ujpZtGgRV5d/Fu7QoUN55yiMu7s76dOnD5GRkSnw/QHAGxWFhoYSeXl5MmzYMN4l9LyP8PBw3rlJGY4oSe59yr59+5L//vuvwKxUkjuJa+/evXT4h/Ie/fDx8SG7d+8mFhYWZO7cuQX+T+3bt4+8fv2aFyuKWCwmhw4dIiYmJsTU1JT7mq1du5YYGxvT5eTJkycF7qcGBgaSd+/e8WIM8yf8yoiy1LbZev78OfT09GBoaIgVK1bwcikpKXB0dERQUBBatWqFwYMHQ1ZWllejp6eH2NhYXL58GbVr1+blaPHx8VBXV0fPnj1x48YNVK1aFa9fv0anTp0AAGvWrIGlpSXvmLS0NFStWhUHDhzA0qVL4ezsjMGDB+PatWuYNm0a0tPTefX5+fn5Fdict2XLlqhbty4vtn//fmzYsAGPHz9Gu3bteLk8J06cgIaGBgYPHszFPn78iKSkJHTu3JlXW5RHjx7B1dUVWVlZ6NKlC3R1demSX/blyxdcvnwZ6enpEAgEMDMzo0tgaWmJs2fP4t27d1ysV69ecHd359Xlyc7OxujRo+Hk5AQAmDFjBqytrZGVlYW0tDQoKSlxtZcvX8b3798xa9YsVK1aNd9Zfl9QUBD27t0LHx+fAiOtCxcuQE1NDQCwcuVKvHz5EsnJyXj58iViY2OhrKzMq0cpbLMVEhICJycn9OjRA+3bt6fTsLW1xdu3b9GlSxfcvn0bampqWLduHaSkpOhSjoODAyIjIxEYGAhTU1PIycnh06dPaNKkCXd1pDzExMTAxcUFAQEB3MpZTZo0wfTp0+lShilXol/YZqvUGiXyXfYs7j9yUWJjY1G9evUS/2d+9uwZOnXqBGlpaQBARkYGnj59iqpVq6Jr164QCAS8erFYDDc3N3To0AEBAQHo0qULACA6Ohrv3r1Dnz59ePW/6vv376hZsyYdZnIblYyMTIkuef9J586d462U9N9//0FOTo5Xg1JolAzDlL8/3igZpjJhjZKpiDIzMyEjI0OHK41faZQlG74xDMMwFV54eDh69OjBm0TH/BhrlAzDMJVAeHg4RowYgcDAQO6+MVMyrFEyDMP84/I3ydu3b0NbW5suYYrBGiXDMMw/LK9Jfv78Gbdv30bv3r3pEuYHWKNkGIb5R0RFReHIkSMYMWIE2rVrBzU1NdSrVw+vX7+GjIwMFi9ejNGjR+PkyZOIjY2lD2eKwBolwzBMBefm5oZ+/fqhbt26WLRoEfz8/KCuro7BgwdDU1MTEhIS6Nq1K+rXr48XL15g/vz5qFmzJkaMGIHnz5/Tp2MorFEyDMNUUG/fvsXgwYPRt29fvHjxAvr6+nj8+DG+fv0KR0dHnDlzBs+fP0eLFi3w6dMnnDlzBmFhYXjw4AHmzp0LkUiEbt26QUdHh7dkJMPHGiXDMEwF5OjoiC5duuD169fYvHkzQkNDceTIkQL3IKtXr47z588jNDSUWxmpf//+OHnyJMLCwmBmZgZ3d3d07twZrq6uvGOZ/2GNkmEYpoLZs2cPRo8ejU6dOuHjx49Yt24dbylIWseOHWFjY4N79+5BX1+fi1evXh3m5ub49OkTWrZsiUGDBuHcuXO8YxnWKBmGYSqUw4cPw8jICHPnzoW7u3uh6xAXZty4cdi5cyeOHTtWYC3smjVrwsvLC5MnT8bMmTNx9uxZXr6yY42SYRimgnj06BGWLVuGKVOm4Pjx43T6h1atWoU9e/bgv//+o1MAABsbG4wfPx7z588vcpODyqjUG2X+HSV+xtu3b+nQH/Hp0ydkZGTQ4Urt2bNndAi3bt2iQwzDlKFPnz5h1KhR6NatG6ytrel0idG7O9FsbGzQoUMH6Ojo4MuXL3S6UirVRunh4fHLTebjx49FboZcnmrUqFHibasIIbhx4wa3BZdYLEZqaioeP36Mq1ev0uU4ffo0t4F1SSQmJsLQ0BB3796lU5z4+PgCGxaLRCKcPn0ahw4dQkxMDLy9venDCoiIiAAApKam4tq1a7xtx06cOJGv8n/c3NwQGxuLhw8f0inY2dnh6dOndLhMBAQEYPv27cjMzKRTP6WwbdZSU1Oxfv16+Pr60imGKXczZsxARkYG7OzsuF2TyoKsrCyuXr2K5OTkv2Kj879BqTXK5ORkuLu7o0OHDnQKyP1FXNju7Hl0dXVx4MABOlxAfHw8duzYgeXLl0MkEuHevXu4evUqsrOz6dJfkpSUhPHjx3N/jouLo0s4AoEAzZs3x7FjxwAAEhISuHr1KoKDgyEvL0+XIyQkBAkJCbh37x4eP36M8+fP0yVA7koaAFCtWjUQQqChoQEbG5sCeygi92a8UChE48aNgdwHjjU1NdG7d2/Ex8fD1dUVrVq1AnIbeUpKCtLS0uDo6IjJkycjLS0NALB9+3Y4OzvD0tIS8vLyeP78Od6+fQuRSITw8HCcPn0a9vb2uH//PkQiEb59+wYfHx/cvXsX169f531O2trasLCw4MV+RCwWw9vbG6dPn8aSJUtgaGiIIUOG8J7x2r17N9zc3HjHaWpq4vPnzwW2Zzt27BjCwsJ4seLEx8fj0qVLvFjVqlXRokWL327CDPO7RCIRPD09sXbtWqiqqtLpUqehoQFDQ0M4Ozvj1atXdLrSKbVGeeTIkSIb4evXr/H8+XOIRCI6xdOwYUN4eXnRYU5ISAi2b9+OJUuWoFu3bnj37h0GDx6MQYMGYf369fj+/Tt9CJC7iaypqSm3sbKJiUmBX6KXLl2Cq6srLCwsEBwcjEuXLkFBQQH29vZYsGABEhISuNr8zfPJkydo3bo1F9fT00OjRo0wfPhwriZPUlISlJWV8eTJE2hra+Pbt29ITEyky5CTk4PDhw/D1tYW0tLSuH37NmrVqlWgGQBAZGQkdu/ejYkTJyI7Oxv+/v6oUqUK6tSpA1dXVzx69Aj3798Hchv5pUuXcOXKFTg7O+P06dPcPotCoRABAQGYM2cOEhISoK2tjdatW0MoFEJVVRVz5szBmDFjYGNjw/v7hw8fDk1NTV6sSpUq6NGjBy9WmEOHDmHTpk2wsbHBjRs3kJycjOjoaCxZsgR79uyBs7MzunbtytXLyMhAWloaTk5OvJF53bp1cf78eZibm3Oje1VVVdy5c4erye/hw4cFvv9KSkp4/PgxxGIxrK2t8f37d6SlpeHdu3d4/fo1zM3NERQUxDuGYcrLkSNHoKqqWuS9xbJgZmaG2rVr4/Dhw3Sq8iGUzMxMMnbsWDr8QyU5pkmTJnSIx9/fn5iamtJhQgghYrGYLF++nGRlZRFCCJk8eTKJjIzk8klJSWTZsmX5jiAkOzubnD59msydO5f4+vryaq2srIibmxsXCw0NJYGBgeT06dNcjBBCwsLCyN69e0nr1q1JRkYGIYSQp0+fkk2bNhEnJyeyevVqkpqaSu7evUtycnKIra0tcXV15Z0jz4YNG8jOnTtJdHQ0IYSQ06dPEy8vL7qMs337dpKZmcmLPX36lBgbG5OMjAwSERFBnJycSEZGBpk7dy4hhBAzMzPu/PPnzyfZ2dnk2bNnJDg4mDuHk5MT8fDw4F6T3K/97t27yYMHD7iYp6cncXV1JcOHDye3b98mW7ZsIQsXLiSEELJ+/XoiFouJkZER8fPzy3cmQuLi4si2bdt4sZI4efIkHeIxMjIihBCSnp5OLly4QFxdXcm9e/fIvHnziLOzM3n37h1X6+bmRu7evZvvaL65c+eS9PR07rW7uzu5f/8+Ibnfc1dXV+Lq6krWrl1L7OzsiFgsznf0/0RGRnJfd4YpKxkZGUROTo5s3bqVTpU5ExMTUrNmTZKdnU2nKixXV1diZWVFh4tVcIjyiwob7fwsTU1NBAcH02EAgLe3N7S0tCAlJYWMjAzIyMigTp06XF5BQQGRkZEAgO/fv2PHjh3Q0tJC9erVcfLkSbRp04ZXa2RkhDNnznAxNTU1uLm58UbF9+7dg5+fH5YvX45Dhw5xo78ePXpg/fr1CAsLw+LFiyEnJ4eAgABISEhg4sSJuHLlSqEj4ypVqiAzMxO1atUCcu9xJiUl0WUAgKNHj+Lr16/YsmUL91yTvb09rl+/jvr164MQAjk5OcjJycHDwwPh4eEQiUQICgqCu7s7tmzZgunTp2PhwoXw9fVFlSpVuHN7enqiZ8+e+f62/00PV1VVxd27d+Hj48PLIfcypFAo5F6rq6vD3d0d379/50bUeQghoPYD/yFfX98C56HVrl0byL2HMmXKFAiFQgwaNAitW7dG586d0aJFC1593ua0kZGRyMrK4uUmTpyIvXv3cq/9/PwgFAqRmJiIevXqQSgUQigUomXLlmjcuDEEAgHveIYpL87OzkhLS4OOjg6dKnM6Ojr4/v17gVselc3vd7dcpdEokXvfrzAfP35Ey5YtAQC2trZYtGgRL08I4e631axZE3PnzsX9+/eLnZiT/1JtamoqPn/+jBo1anAxNzc3DB48GADQt29frsEh9/Lo27dvoaGhAeReVs1jYGCAnTt3cq/zvH37lrtfiNx7kQ0aNODVIPde3Nu3b7F//36Ym5vj0aNHsLOzQ4sWLbBjxw4sXrwYsrKyqFatGvcLvX79+hAKhWjYsCG0tLQQFxcHgUCA2bNnQ1pamvfvKmpCUVpaGszMzLBs2TLExMQgKioKKSkpUFVVRefOnXnNT1tbGzNnzoSxsTHvHMj9Hhb1fSxKaGgo97UsSo0aNQqdsi4jI8N97/NISUlxb2weP35cYPJDnz594OzszL2WlpbGhw8fSu3nmGFKi52dHVRVVXlv9stLjx49UKtWrQLzECqbUvutQP8i+hWfP39Gs2bN6DCQew8pNjYWmZmZuH//Prp168bLOzg4YPLkydzrmjVrQkFBgVeT371793j30VauXIkpU6bwauTl5ZGSksKL5bG1tcXUqVOB3CaZ1xhCQ0ORnp5e6Ndj0aJF6Ny5M/c6IiICTZs25dUAQPPmzbFv3z58//4db9++hby8PMaNG1dgxJQnOzsbVatW5V4TQiAtLY0HDx5AU1MTM2bMgKSkJFdbWDN4/vw56tevD3l5eRw4cABycnKIjY1Fo0aNEB0djZcvX0JKSgopKSnw8vJCaGgoGjZsiCZNmuD27dv06YoUEhJChwAALVq0wJMnT+gwJyUlBTIyMoV+7pKSkgVGjPXq1cPnz5/x8uVL3hucPLKysli9ejX3WiwWw8/Pr8DPTGxsLOrWrcuLMUx5evXqVYErQOVFIBCgY8eOlX5CT8HfOr+oZ8+eePnyJR3+KQ4ODhg5ciQdBnLXJnz8+DEOHTqE9evX83J3797F+/fvMWnSJF68MElJSTh+/DiCgoK4G+PZ2dmIi4vjGpG3tzdEIhE+f/6Mw4cPcxNE8iQnJ0MkEqFevXpAbtPMm7xTv359dO3aFRcvXuQdAwBaWlrcCNLLywvt27enSwAAI0aMQFRUFB4+fIjWrVtDUVGRLuF59OgR+vXrx70WCATo168f1NXVYWlpiXfv3nGPP0hJSRUYfRFCcOjQIfTq1QsA0LZtW8jLyyMuLg7x8fGoXbs2+vbti4MHD2LOnDmQlZWFn58fTExMMGTIEHTq1Il3Pjk5uQKNixCCK1euFDpzFwAaNWoENzc3fPr0iU4BuW/EDh06xE3u8fX1xfbt22Fubo5r165h165dvHe9GhoaCAkJwYEDB3iXjPMbNmwY9+eoqKhCLzl/+PChXGYZMkxR4uLieLeZyludOnUq/ZZcpdYoi1v26OPHj7h16xaCg4Nx7dq1QhclSE9Ph7e3d5GXF6SlpbFq1SpMmDABzZs3B3Kb3pMnT6CiooI1a9bQh/B8+fIF4eHhiIqKwpw5c7BgwQJudCIlJQVbW1uuNjAwEEKhEM2aNUOHDh0wdepUbNmyhcsfO3YM06dPh5SUFNauXQtfX1+0bduWy/+In58fPn36hHnz5tEpjre3N3epeeXKlUDuvzcgIIBXRwjB9evXC8yyHTx4MPz8/DB58mTcuXOHd49SV1cX69evR3R0NHx8fLBkyRIYGRkVeKQlOzsbioqKSE9Ph1gsxpkzZ9CiRQsEBwdjxYoVGDhwIObOnYvq1avzjpOVlUVYWBisrKwgEolga2sLU1NT9O/fv9jLq5s3b4aRkRGmTZtWYL1JGRkZZGVlQUpKCsi9bN6vXz+sXbsWLVq0wKFDh5CSkoJr165xxyxbtqzAjNyi6OjoFHgG+PLly2wneOaPS0xM5O7P/wl16tThzfqvjASEmnWRlZWFSZMmwc7OLn+4RNzc3BAREYEJEybQqWIRQrB161bMnTsXKioqdLrcubu7IyIiAqGhoVi+fDkAwN/fn7u/GBYWBjU1NQBAcHAw6tWrx/0C/xFPT0/UqVOHe+6xOM7OzvDy8gIhBOnp6fjy5Qv09PQwbtw4rubw4cMYO3Ys93XbtGkTli1bBiUlJaSnp8PGxgZ37tzB5cuXeZeDg4OD4ejoCCkpKYwcOZIbHedJTk7G58+f0a5dO4SHh8PDwwOJiYn4+vUrrw4AFixYUOD4rKws7n5inTp1ePdmf8TDwwOEEGhpafHi1tbWmDVrFvc6MTERr1+/RteuXXmXnkvDp0+fEBcXV+ASf35RUVFYu3YtTp48SacYptSoqalh/PjxvMln5WnhwoV48OBBgTfpFZVIJMKrV69gZGREp4pUqo0SuQ9u0yOMkkhISCh29XumZJKSkn54qZYpHaxRMuWhU6dOaN68eYEFMcrLqFGjEBsbW+wcgorkVxplqV16zfMrTRK5k3WY38eaJMP8W+rUqcMtMfknRERE/BVX+v6kUm+UDMMwTOnp2LEjXr9+jZycHDpV5jIzM+Hn54eOHTvSqUqFNUqGYZi/2IgRI5CQkPBHHvrPW+xgxIgRdKpSYY2SYRimDMTFxWHcuHFYtmwZrK2tC338qCS0tLSgpKSEmzdv0qkyd/PmTdSrV6/IzS4qC9YoGYZhykCVKlWQnJyMAwcOYPbs2Wjfvj3k5OSgra2NZcuW4dy5cyXawk0gEGDhwoU4d+5csbsZlbbo6GhcunQJ+vr6dKrSYY2SYRimDMjJycHZ2RmEELx69QonT57EvHnzkJGRgQMHDmDmzJlo164d5OXl0adPH1y5coU+BcfExARZWVnYsGEDnSozq1evRpUqVX5qdui/ijVKhmGYMtaxY0fMnTsXBw4cwIULF7BhwwZupn9qaiq+ffuGgQMH0odxqlevDkNDQxw5cqRc7lXevn0bZ8+exbp16wosRFIZsUbJMAxTxoKCgmBpaYlOnTqhWbNm2LRpE7cGsbKyMu7evcvbuKAwJiYmaN++PXR1dfHt2zc6XWoCAwMxadIkdOvWDUuXLqXTlRJrlAzD/LbMzEz4+vri2rVrsLS0xLlz5/Ds2TMkJyfTpZVGREQE9uzZg+7du6NRo0YwNjaGWCzGli1b8OXLF251rtu3b5doqUU5OTncunULkpKSGD58eJEbNvyOpKQk6OjooHr16rh9+3ahmztURqxRMgzzy8RiMaysrKCkpIR27dphxowZuH79OlasWIEePXpAUVERM2fORHx8PH3oPykmJgaHDh2CtrY26tWrByMjI6SmpmLTpk0ICAjAmzdvsHbtWuzYsQMuLi64cOHCT+0MUr9+fdjb2+Pjx4/Q0tJCWFgYXfLLgoKC0L17d255y8J23amsWKNkGOaXfPz4Ed26dcOqVaswb948fPz4ESkpKXj27BliY2Px7ds3HD58GLa2tmjRogUcHBzoU/wT4uLicOLECQwYMAAqKipYsmQJYmNjYWZmho8fP8LX1xfr169HkyZNAAD79u3DkSNHYGpqWmBrv5Lo1asX3N3dERkZiS5dusDT05Mu+Wlubm7o0qULkpOT4enpWeTORpUWoWRmZpKxY8fSYYZhKJGRkWTu3Ll0uFJIS0sjjRs3JnJycuTq1at0msfHx4c0atSIyMjIEH9/fzpdISUkJBBra2sydOhQIiUlRQCQFi1aEFNTU+Ln50eXcxwcHIiEhAQZN24cnfppYWFhpE2bNkQgEJBZs2aRyMhIuuSHQkJCyKRJkwgA0qtXLxITE0OX/HNcXV2JlZUVHS7WLzXK6OhoEhERQYcZplKpzI1y6dKlBACxt7enU4UKCwsj1apVI+3btydZWVl0ukJISUkhFy9eJKNGjSKysrIEAGnWrBlZv3498fHxocsL8Pb2JnJycqRnz54kPT2dTv+yvXv3kho1apCqVauSmTNnknPnzhXbNENCQsiJEyfI5MmTCQBSp04dcvToUbrsn1VujTIrK4sMGzaMfP/+nU4xTKVRWRtlUlISkZCQIDNmzKBTxTp37hwBQG7dukWn/mp2dnZEV1eXACAASJMmTYixsTF5+fIlXVqsFi1akEaNGpXJ783ExESyefNm0qpVK+7zlJeXJw0bNiQ9evQgnTt3JhoaGqRq1apcvl27dmTHjh0kNTWVPt0/7Vca5S/fo9TU1ER6ejoAFLpHYUJCAm7cuEGHGYap4B49egSxWAxjY2M6Vazp06ejXr16EIlEdOqvc+vWLUybNg3y8vIYN24cXrx4gTVr1uDly5cICAjAtm3b0KlTJ/qwYpmamsLFxeWHj4H8CkVFRaxbtw5v377Fx48fsWPHDsyZMwe9evWCkpIS6tSpg969e2PevHnYvXs3vnz5Am9vb6xevRpycnL06Rga3TmLG1Hev3+f3Lt3j5ibm5M1a9aQjRs3EkIIefToEZk2bRp5+/Ytr37MmDG813nCw8OJs7MzHWaYCqWyjihXrVpFatSoQYdLZPLkyaRTp050uFQ8f/6cDv0UZ2dnMn36dKKoqEgAEA0NDbJq1Sri5eVFlzIVWJmPKHv06AFVVVXUq1cPlpaW3HJKnTt3hp6eHgYPHoyPHz9y9UXtaq+iogIpKSmcP3+eTjEM85fz8PBAv3796HCJ9OnTB2/evEFqaiqd+i1HjhxB165d4e3tTaeK9fDhQxgYGEBZWRlDhgzB/fv3oa+vj6dPnyIoKAg7d+5E165d6cOYSuanGqW8vDwkJCTQoEEDLhYeHo4jR45g1KhRcHd3R0JCApfL/7Aq/bxP//79ceHCBaSlpfHiDMP83apXr47Y2Fg6XCLx8fGQlJRElSpV6NQvc3JywpIlS6Crq4t27drR6QLc3d2xdOlSqKqqYsCAAXB0dMSsWbPg4eGBb9++YceOHejRowd9WInlbbJc1EDg1KlTEIvF3OsrV67A29sbz549w6ZNm3i1P5KUlFSihdWLcurUKZw5c4YO8yQlJSE5ORnh4eF/ZAcTX1/fP7pxNX62USL3CztkyBDu9Zs3b9C7d28IBAJoaGjw3n3lNcH3798X+sBxly5d8PLlSzrMMMxfrEOHDj89csvz+vVrdOjQARISP/2rp1CvXr2Cnp4eevfuDVtbWwgEAroEAPD8+XOsXLkSDRo0QO/evXH9+nVMmDABT548QXBwMPbs2fNTD/4XJScnBwYGBsjJycGTJ08AgHtTYW9vD+R+Lnn//m/fvsHW1hbNmzfH7du3MW3aNAQGBiIgIADm5uYQiUSYMWNGkZs2Kyoq4vLly7/0e9TJyQny8vJo3bo1L56UlARCCPdaXl4eu3btQmBgYJGfx8/as2dPieewNG3aFCNHjqTD5eqnflrt7OzQtGlT3g+jsrIyvn//zqvLk56ejqysLFy6dKnANwMAZs2ahTp16tBhhmH+Yh06dEBsbGyJf9HliYiIgIODw09PgilKQEAAhgwZAg0NDTg4OEBGRoaX9/b2homJCZo0aYJu3brh4sWLGD16NB49eoTQ0FDs27cPWlpaRTbXX/H8+XP07NkTjx8/xrdv3yASiXD8+HGkpaXBxcWFV5uYmIjDhw/j/PnzSE9Ph6KiIpYvX46QkBCkp6cjJiYGQqEQ1apVg6SkJO/Y/Jo0aYJ69erRYcTHx8PFxQUikYj7sLe3x6NHj7BixQo8e/YMkpKS6NatG+84RUVFmJqa4v79+wAACQkJmJubgxCCsWPH8mp/VXBwMD58+ABzc3OsWLEC9+7do0s4VapUQZcuXehwufqpRunh4YG5c+cCue+E7t+/j8+fP+PChQuFDv/Hjx+PYcOGoXPnznQKyP0GN2vWDACwY8cOrF27FpGRkXQZwzB/ER0dHWhoaGDFihXIyMig00UyNDREVlYWFi1aRKd+WkxMDAYOHAhJSUncv38f1apVAwB8+vQJZmZmaNGiBTp06IDTp09jyJAhcHV1xbdv33Dw4EH06dOnVJtjfsnJyVi9ejWEQiHq1asHoVCIYcOGISEhocDfmZmZic2bN2Pnzp14/PgxVq9ejXr16qF3795FXmo8efIkzM3NYW5ujiVLlmDOnDmwsrKClZUVzM3NuVWSsrKyUL16dbx79w7S0tJo3rw5hEIhxowZg759+4IQAm1tbYwfP57+KwAAFhYWBeaYaGtr49SpUwgMDOTFf9aHDx8gKysLY2NjmJubc0vnFad69ep0qFz9VKO0srLi7jt6enpi4MCBqFu3Lnr16oWzZ8+ic+fOvKF57969MWzYMDRv3jzfWQpyc3PD3LlzsXXr1nLZQoZhmF9XpUoVXLx4EcHBwTA1NaXThXJxcYGtrS02btxYovuIxUlLS8OQIUMQFxcHFxcXZGVlYcuWLWjXrh2aNWuGI0eOQCgU4sGDBwgPD8fhw4chFAoLNKrSJhaLISUlhUePHkEkEnEjysePH8PLy4t3ORMAatWqhdTUVISHh6NTp07cMU+ePIGUlFSBegCYOXMmunbtimXLluHgwYMYNmwYlJWVsXLlSpibm2PXrl04efIk93t62bJl0NLSgqqqKneOmJgYpKSkFNjWKzw8HGfPnsXhw4chISFRYJS6ZcsWqKqqckvxIXdUnCc9PR3v37+Hg4MDb1JnfvHx8Th27BjMzMyA3Ft37du357YcK0pGRgacnZ3h7+9Pp8rFTzXK/Fq1aoUTJ04gPj4eixcvxq5duyASiQpcIli5cuUPG2WzZs0QFRWFlJQU1K1bl04zDPOX6dWrFzZs2IAdO3Zg5MiRRY6AMjMzsX79egwdOhR9+vTBf//9R5f8tMmTJ+PVq1fo1asX5syZg0aNGmHXrl3o1q0bXFxcEBUVhaNHj6J///6ldi+0JCQkJKCoqFhgxxQ1NTWMHDmy0EZ9/PhxZGRkIDU1Fd7e3qhXrx569eoFsVhcaL20tDRGjBiBGjVq4OvXr3j58iXmzJlDlxUr/xML+amqqmLmzJmoXr06MjMzuTghBBs3bkTPnj0xfPhw3jGenp64desWnj59irFjx+LLly9QVFQs9EpDUFAQ3NzcsGvXLu7ZzR07dsDQ0JAuLUAgEGDIkCHw8/PDiBEjfnky2a/65Z+iFi1aYP78+Rg3bhz3DVVUVKTLSkRFRQUNGzZEXFwc+vTpQ6cZhvkLbdy4Ebdu3cLr16/RsmVLTJ06FZaWlrhz5w7279+PhQsXolWrVti5cyc2b96Mhw8f/nbjWrx4MTfz0sPDA23btoWzszPi4uJw8uTJAqOk8vbt2zfIysryLr06OzsjOTm5wAjR0dERurq6kJWVBXIbLSEEHh4ekJKS4tXSvnz5gq1bt2LLli10qlgikQhdu3aFhoYGneJMmTKFu98bHh6OqVOnYty4cejfvz9disGDB2PUqFHo2bMnunTpgmHDhkEoFKJt27Z0KapVq4ZRo0ZxPwPnzp3DqlWrSnRZNTs7GwAwYcIELFq0CI6OjnRJmfq9n9pSJCcnh/r169NhhmH+Yjo6Onj//j2WLVuGkJAQmJqaYvjw4VixYgU8PT0xZMgQvHv3DiYmJgWuNv2sz58/4+vXr9xlxMTERNja2mL79u1Yv349nJyceI+n/U2qVauGqlWr8mIjR44s0LAEAgGEQiFUVFS4GN1gX79+jaNHj2LPnj3c15SuKYy7uzvevn2LCRMm0ClO3mpryF2daMaMGdixY0ehkzFp+f992dnZSEpK4uXzr0h0584dNGzYsMQTu/J/XiNGjMCMGTN4+bL21zRKhmEqJkVFRVhYWMDNzQ3JycmoWbMmlixZAm9vbxw6dIjboPh3NW7cGI6Ojvj27RsiIyNx69YtrFmzBnJycjh+/DhGjBiB6tWro1WrVtDX18f79+/pU/wRec9M7ty5k05xIiMjYWdnBz8/Pxw6dIgbUb59+5a7HUUIgZ2dHeLj42FpaQkJCQl4e3sjMDCw2E2ck5OTcfbsWWRlZWHx4sV0mic0NBT//fcfJk6ciNevX+POnTtFDmACAwOxZ88euLu74/Hjx6hXrx7OnTsHCwsLbNy4EcePH6cPQXZ2Nq5cuYKGDRv+1NXD0l6g4qfRS/UUt4QdwzD/r7IuYfcjKioqZOXKlXS4zIWEhJBbt26RDRs2kGHDhpHLly/TJWXO0dGRPH78mBBCyMKFC8nDhw/JsmXLCMndTOLRo0dk9OjRvGMWLlxI9u/fT1xcXIhYLObiixcv5tUlJycXWMA8Ozub9OvXjyQnJ/PieT5//kzu3LlDcnJy6FSRHj16RBwcHOjwb/P19SXXr18nmZmZdKpYqampZOrUqXT4l/3KEnasUf5lXr16RYeK9OHDB+Lq6kqHmXLCGmXh/lSj/NvcuHGDDpFXr16RJ0+e8GKHDx/mvc5z/PhxOlRpleY+mb/SKNml11KWlZUFe3t77gFfFxcXnDlzBlZWVrC2tsb+/fsxa9Ys+jCOjY0NPDw86HChNDU1YWpqyl3aef369V97j4ZhKpsxY8bQIXTs2BFaWlq8mIGBAe91nvnz59OhSqtmzZp0qFwJCHUXOCsrC5MmTYKdnV3+MPMTzp49C4FAgP79+/Ou7+c9pzR16lTeerl5srOzoauri6FDhyI6OhouLi4wNzfHoEGD6FIAgIODA96+fYv58+cjIyMDy5YtQ//+/UvlgW7mx6KiorB27VqcPHmSTv0zoqOj8e3bNzpcrIEDB2L48OEwMjKiU8Vq3rx5qa4ByzCFEYlEePXq1c/9fNJDTHbptXS9ffuWzJ49m9jY2JCvX7/SaZ7NmzcTDw8PQgghsbGxZNKkSXQJJzs7m8yaNYt7nZGRQfr378+7F0Hfz2BKV2W49Lp7925uo9+y/vD396f/eoYpdb9y6ZWNKMtYeno6Ro4cCRcXl0IfIM5z//59pKamYtSoUUDuM2ojR44scvq0lZUVZGVluaW8bt68iWHDhvGedfL09ERUVBS3vBctKysL7u7umD59Om+1jR+Jj48vdpZdRZOUlARJSUk0bdqUThWrMowov379ig8fPtDhYk2aNAn9+/fHggUL6FSxtLS0IC8vT4cZplT9yoiSNcoy9uzZMzx+/BirVq2iU5y8tRPzmtXnz59x4MAB7Nmzh6r8n6dPn6JGjRpo3rw54uPjMXPmTERERODZs2d0KYyNjTFo0KBin2FTUVFBixYt6HCRFi1aVOjU74qKEILmzZv/9PJYlaFR/gpVVVVMnToVu3btolMM88f9SqNkl17LmIGBAYmOjqbDRcrOziampqZFTqHOysoi2dnZ3Ov4+Hiir69PPDw8SFpaGq+WKZlTp06R4cOH0+EfqgyXXn8Fm/XK/M1+5dIrm/Vahu7duwdtbW3UqlWLThUqNTUV+/fvx+rVq3mbXucnJSXFjQ7FYjEOHz6MHTt2oGfPnmwiBFMpvXr1CidPnsTixYsxadIk3iouDFMaWKMsI/7+/ggLC8PkyZPpVKGeP38OJycnrFixAgoKCnS6gMTERDx48ABr1qz55TV2Gaai8fHxwenTp7F06VL06NEDAoEAnTt3homJCQIDA9GmTRv2hpEpdaxRlhGBQIDZs2fT4UJ5enqiVq1a0NPTK3bCT57Hjx/jw4cPP7z3yDD/glOnTqFnz54QCARo3749Vq1ahY8fP2LAgAG4fv06goKCEB0djbt372L9+vX04Qzz21ijLCMtW7akQ0Xq0aMHGjVqRIeLpK2tja5du9JhhvknDR8+HGFhYQAAdXV1dOzYEf3798f8+fOhq6tbYGFxhiltrFEyDPNXU1VVxZ07d6CoqIjg4GDUr18f27dvR6NGjdC9e3fs3r27yP0wGaY0sEbJMMxfr3Xr1twehDExMYiLi8OdO3fQqlUrbNy4EaqqqujTpw8OHTqEmJgY+nCG+S2sUTIMU+pycnLo0G/r06cPbG1t4eTkhIULF2Lo0KE4c+YMoqOjcfPmTdSvXx/GxsZQUVHBwIEDceLECcTFxdGn+ee9fPkSW7ZswZIlSzB58mQMHjwYI0eOxMyZM2FkZISjR48iKiqKPowpBmuUDMOUmsuXLwMAXFxc6FSpmDhxIszNzXH8+HFs27YNACAtLY1Ro0bh4sWLiI6Ohq2tLapXr47ly5ejbt26GD58OM6ePYvk5GT6dP+Mb9++YfXq1VBXV0eXLl1gY2ODkJAQyMvLo2vXrmjWrBnEYjH8/f1hYmKCunXrQktLCydOnKBPxRSGfrCSLTjAVDZswYHSERgYSKpXr046duxIABATExO6pNRMnDiRACC2trZ0ipOcnEwuXLhAdHR0iIyMDJGVlSWjR48mly5dIikpKXR5hRQTE0NWrFhBABAVFRWyZs0a8ubNG7qsgJs3b5Lx48cTAKRRo0bk3LlzdMk/iy04wDDMH6Ovrw9JSUncuHED//33H7Zt2wZ7e3u6rFTY2NigT58+mD59Otzc3Og0AEBeXh5TpkzBrVu3EB0djaNHjyI9PR3Tp09H7dq1MWHCBFy/fh0ZGRn0oRXCy5cv0aJFC9jb2+Pw4cMICgqCpaUl2rdvT5cWMGrUKFy5cgUhISEYOXIkFi5ciP79+//To+7fwRolwzC/bd26dXBxccHRo0ehoaGB7du3o1+/fjAwMPjpbbpKQlpaGg4ODmjevDlMTU3pdAHVqlXDrFmzcPfuXURFRWHXrl2Ijo7GuHHjUKNGDcyaNQsODg70YX8tR0dH9O7dG127dsX79+9hYGAAWVlZuuyH6tevj/379+PFixd4+/Ytunfvzj2Kw/w/1igriKdPn+Lp06d0mGH+OHt7e2zduhVr1qyBnp4eFz969CiSkpKK3Jj4d1WrVg0ikQhnz56lU8VSVlaGgYEBXF1dER4ejs2bN+PTp08YNWoUqlWrhrlz58LZ2Zk+7K9ha2sLHR0djBkzBk5OTr/UIGmtWrWCh4cHkpKS0KVLFwQHB9MllRprlBVERkYG5syZQ4cZ5o8KCwuDvr4++vXrB0tLS16uWbNmOHr0KG7duoUtW7bwcqWlZs2av7XggIqKCgwNDeHu7o6wsDCYmZnB19cXQ4cORe3atWFgYACRSARqk6U/xtPTE5MnT8bYsWNx6dIlOv1bmjRpAg8PDwCAjo4OuwybD2uUDMP8Mn19faSkpODo0aN0CgAwbdo0LF26FOvXry+zmbClpV69eli5ciW8vLzw9etXGBkZ4enTp+jXrx/U1NSwfPlyrpH8CaGhodDR0UG7du1w/vx5Ol0q6tevjzt37uDTp0/Q09P7a94g/GmsUTIM80s2btwIR0dHHD16FM2aNaPTnP3796N79+4wMDBAQkICnf4rqaurw8TEBG/evMGHDx+gr68PJycnaGlpQV1dHWvWrMHz58/pw0pk6dKluHXrFh3+oYULF0JKSgrOzs6Qk5Oj06WmQ4cOsLW1hbOzM6ytrel0pcQaJcMwP+3OnTswMzPD8uXLMXXqVDpdwJEjRxAYGFhm9yvLUrNmzWBqaopPnz7hzZs3mDlzJmxtbdGtWzeoq6tj/fr18Pb2pg8r0ocPHzBx4kR4eXnRqSK9ePECTk5O2Lt3L1RUVOh0qRs1ahT09PRgZmaGzMxMOl3psEbJMMxPiYmJgYGBAXr27Im9e/fS6UJ17NgRR48exaVLl0p8zN+offv22LRpE4KDg/H8+XNMnDgRNjY26NChA1q1agULCwsEBgbSh/FcvnwZ9evXx4gRI/D161c6XShDQ0Noampi/PjxdKrMmJubIyQkBCdPnqRTlQ5rlAzD/BQDAwOEhYUVeV+yKAsXLsScOXNgaGj4R+/1lZYuXbpg586d+Pr1K9zd3TFo0CAcO3YMmpqa6NChA7Zt21bo7FFlZWXcv38fkpKSGDhw4A+X2fvw4QOePHkCAwMDSEiU36/s1q1bo3v37jh+/DidqnTK76vOMEyFt2PHDly7dg1Hjx5Fu3bt6PQPHTlyBG3atIGBgQGys7PpdIXVq1cv7Nu3D2FhYXB1dUXPnj2xZ88eaGhooFu3brCysuI9T6qhoQEXFxeEh4dj+PDhxV7evHfvHgDwHr0pL2PHjoW3t3elXxuWNUqGYUrE1dUV//33HxYuXIi5c+fS6RKRkZHBkSNH4OPjUyHvV/6IQCCAUCjEkSNHEBUVBWdnZ7Rt2xZbtmyBmpoaevfujQMHDiAqKgpt27aFvb09nj9/jkmTJhU5w/TevXto164d1NXV6VSZmzBhAgDAycmJTlUqrFEyDPNDycnJ0NfXR6dOnX76kiutd+/esLKywsmTJ//5RbkHDx6MU6dOITY2Fg4ODmjUqBHWrVuHunXron///ggMDMSuXbtw48YNrFy5kj4cAODt7f3HNmpv2LAhqlev/lOTlf5FrFEyDPND+vr6+Pjx4283yTxGRkaYOHEi9PX1K80v4ZEjR8LGxgaJiYmwt7dHnTp1oK+vD0NDQwDAnj17cOjQIfowREREQE1NjQ6XGzU1NXbplQ4wDMPkt2/fPly4cAGHDh0q1ZHNkSNHoKGhAX19fTr1zxs9ejROnjwJJycndO7cmYsvWbKE94xlQkICsrKyUK9ePS5W3tTU1BAZGUmHKxXWKBmGKZJYLMaLFy8wa9YsLFq0iE7/FmVlZRw5cgShoaFwdHSk0/+UlJQUuLm5Ye/evZg6dSpat24NRUVFDB8+HHFxcZgwYQIsLS3x8OFD9OvXjz68XGe70gQCQZH3TyuLP/fVZxjmrychIQEbG5tSu+RKGzJkCF6+fImRI0fSqX/Ghw8foKCggL59+2Lfvn3IzMzEjBkz4OLigoSEBAQGBuLy5ctYs2YN+vXrB0VFRe5YJSUlyMjIICIignfO8hQeHl4uixz8zVijZBjmh0pjh4qi1KlThw79U5o3bw43NzfExsbiy5cvuHr1Kv777z8MHDgQ1apVo8sLqFu37h+99BkREcEaJR1gGIZhSpe2tjaUlZXpcIm0a9cOr1+/psPl4tu3b4iKiirRZtD/MtYoGYb563z58gWPHj2iw5XSkCFD8PTp0z+yoHzeveNhw4bRqUqFNUqGYf4KiYmJWLZsGUJDQ/HkyROEh4f/1Rsol5chQ4aAEPJHJjzdvn0b7du3R+3atelUpcIaJcMwf8y7d+8waNAgAEC1atUQGxuL+vXrQywWIz09HUOGDKEPqXSaNWsGdXX1cl9MPigoCHfu3GHfA9YoGYYpSlZWFhITE3mPBgQEBODGjRul9rhAy5Yt0bZtW+519erVAQAzZ87ErFmz8lVWboaGhnjx4gVu3LhBp8qMiYkJJCQksGTJEjpV6bBGyTBMoSQlJbFixQrMmTMHxsbGOHjwIHx8fLB161aEhobyan/2/tmePXtw/fp1WFhYwNPTE9u3b4e5uTm8vLxgbm6OVatWcSvWMP/b7LlVq1YwMTFBTk4OnS51fn5+sLW1hbGxMRo0aECnKx0Bod4aZmVlYdKkSbCzs8sfZv4wkUgEAwMDvHv3jk4xv+n06dOws7PD7du36VSxoqKisHbt2kq1X196ejpWrVqFgwcP8uIXLlzAp0+feLH8wsPDERYWhpMnT0JFRQUfP35EQEAAmjdvjgMHDnCXFVesWFHulxgrCl9fX3Tt2hUzZ87EsWPH6HSpSUxMRPfu3VG9enW4ublBWlqaLqnQRCIRXr16BSMjIzpVJDaiZBimxN6/f1/oMnbjx49HkyZNMGDAACxfvhzm5ua8j2PHjsHR0ZF7Hq9Zs2YYPnw4mjRpguTkZABAdnZ2uYyWKqq2bdvi9OnTOH78OPbs2UOnS0VWVhZ0dHQQGxuLmzdv/nNN8lexRskwTAFeXl748uULXr58CZFIBJFIhCtXrmDv3r148uQJzM3NsWDBAnz//h3I3T5r+vTpv/S8YKNGjYDcRxEGDBhAp5l8pkyZAkNDQ6xcuRJbtmyh078lLi4OgwYNwtOnT3Hz5s1/fiGIn8EaJcMwBbRs2RJ79+6Fq6srQkJCkJ2djSZNmsDc3BxWVlYwNzfHrl27IBAI6EN/2rp165CZmYmzZ89i1KhRdJqhWFlZYfXq1Vi/fj0mTJhQ7KbPJRUQEIBu3brh9evXcHJyQo8ePeiSSo01SqZSefHiBR1iCqGoqIh9+/Zh1apVmD59OgYOHIjOnTujYcOG3LJr1apVQ40aNehDfxohBFZWVjh06NAfXfy7ohAIBLC0tMT58+dx48YNtG/fHnfu3KHLSiQ9PR2bN29Ghw4dAAAvX77EwIED6bJKj/1UMpXC3bt30b9/f2zbto1OFenUqVOoX79+md0PYv7XJE+cOAF9ff0/upVURTR16lT4+vqiYcOGGD58OIYMGYLLly9zl8OL8/btW+zbtw+amprYsGEDDA0N4e3tDU1NTbqUYbNeKw426/X3denSBS9fvoSbmxu0tbW5eFGzXlu1aoV3797hxYsXvD0D81TGWa9M+fvw4QNcXV3pMM+7d+9w8+ZNfP36FQBQv3591KhRA4qKilBUVERmZiaSk5ORnJyM4OBgbgJVt27dMGbMmCLvK0tJSWHevHl0uEL7lVmvIJTMzEwyduxYOsz8Ya6urqRFixZ0mPkJFy9eJADI6NGjefFTp06R4cOH82LHjx8nAMjUqVN58fwiIyPJ3Llz6TDDlCpra2sC4I98yMnJ0Z9Ohefq6kqsrKzocLHYpVem0pg8eTK6deuGmzdv/nDBbSsrKwDAqlWr6BTDlKspU6YgMTHxj3xERUXRn06lxBolU6msXLkSyNcIC3P06FF8+PABM2bM4CY5MMyfIi0tzV1CLe8PBQUF+tOplFijZCqVCRMmoEePHnBwcMDDhw/pNJCvieY1VYZhKjfWKJlKp7hR5eHDhxEQEIDZs2ejXbt2dJphmEqINUqm0tHT04OWlhacnJxw//59Xo6NJhmGobFGyVRKhY0qDxw4gM+fP2Pu3Llo3bp1vmqGYSoz1iiZSklXVxfa2tq4e/cu/Pz8ADaaZEpZZmYmzp8/T4cLOHv2LLKysgAAPj4++Pz5M11S6sRiMQ4fPozo6Gg6VaiQkBCEh4fT4UqDNUqm0spriM7OzggKCsLXr1+xYMECtGzZki5lmBJ59eoV9+fMzEy8f/+el3dxceG9fvnyJR4+fAgpKSkgdzH62NhYXk1R4uLiMHfuXAQGBtKpH3J2dkaXLl1w7tw5OsWTnZ2Na9euoUqVKjhy5Aid/iXHjx/H8+fP6XChHj9+jJEjR9LhcscaJVNpjR49Gn379oW/vz8CAgIANppkfsO7d+9w7tw5breVZ8+eoWbNmtzrq1evwtTUFN7e3twx165dw6pVqwpdXD49PR3r1q1Deno6nQIAKCsro2XLlqhduzadQnx8PMRiMQAgIyMDAPD9+3e8efMG5ubmyMzMxN27d3k/7zk5OXBwcMCqVavw5csXIHdlnlatWuHmzZvYuHEjV/s7vn79im/fvkEkEuH69euIjIykSzja2tqF/vvKG2uUTKWWt6BAZmYm9PX10axZM7qEYUrEx8cHJiYmEAqFEAqF6N69O75//w6hUIjevXsjKSkJT58+Rfv27YHcxuTv7w8FBQWumRobG+P48eMQiUTw9PTEoEGDkJiYCORuQ5a3X2dISAhEIhGCgoLg7u4OkUiEtWvXYvHixRCLxZCTk4ORkRFu3boFe3t7iEQivH37Fo0aNUJmZiZ8fX1hamrK+/wlJSWho6ODNWvWcH8ncpdynDdvHiIiIhATE8M75mdFR0cjPDwcSkpKAIAtW7bA3d2dLuNhjZJh/rARI0Zwl706depEpxmmxCZOnAg5OTmu6T169AjBwcEQiUR48uQJGjdujJSUFK7+/PnzIISgUaNGEAqFkJSUhLq6OjQ1NaGmpsY13Lx9IVu0aAFjY2PcvHkTX758QXR0NOzt7aGtrQ2hUAgTExNMmzYNACArK4u9e/di1KhRmDhxIoRCIfr06QNJSUncu3cPa9eu5T4P5DZeGxsbvH//HnXq1OGaeZ7AwEB4eHigVq1avDgtPj4e2dnZdBjIfWNgYWGBbdu2QSgUokGDBmjQoAHGjh1Ll/KEh4fDx8eHDpcr1iiZSm3Xrl3cf+yLFy/SaYb5KdWqVYOsrCyQe5Ui703Y69ev8eDBA8jLywMAkpOTIS0tDXV1de5YBwcHGBgYoF+/frC0tORGj3k0NTWxc+dOjB49Gp07d4aLiwuMjIyQt6+FoqIievbsWexWZXv37sWGDRsK1DRo0ADjx4/Hrl27uPPleffuHZ4+fVqgod27dw+mpqbYunUrxo4diwMHDmDfvn2FLuAuFotx6dIlbNq0CXXr1gUAmJmZwczMjC4tQElJCW/evMHQoUMLffa5XNCLv7JF0f9ObFH00peVlUXq1q1LABBlZWUCgNy8eZMuKxJbFJ0pztu3b8nBgwd5sbCwMEIIIbGxsUQsFpPFixcTkrvweUBAADlx4gR5/vw5uXv3Lpk9ezbv2DxJSUlk3rx5JDExkezZs4ckJCTQJYV69+4dGT9+PB0ulr29PRGJRHS4ABMTEzrEExERwXvt5OREjI2NebGirFixghBCSEZGBpk1axaxtramS34KWxSdYX6ClZUVIiMjMWDAAG4fvj/2jpWp8Ozt7WFubs59GBsbw9HRkRebPXs2bGxsoKyszE3g+fLlC1q3bo0mTZpw56pduzYUFBQwbtw4JCQkcPHo6GgsXboUFhYWUFRU5OI/EhkZiTVr1uDUqVN0qlARERGYPXs2lJWV0bdvXzpdwI/WhM0bRQKAn58fbt26ha1bt/JqipI3GUlGRgZnzpzBqFGj6JIyxxolUyllZGRwTXHIkCGoXbs2hgwZAjc3N9y4cYMuZ5gfGjNmDNcQ16xZgwYNGuDEiRNIS0vDqlWrYG5uDmdnZ0yfPp13nLy8PDc79sOHD3j58iUSExOxbNkyLFiwgLt8+/z5czg6OuL48eMICwuDr68vcnJyuEZSlDt37mDlypU4duxYsc3V19cX79+/x759+2BkZIStW7eiT58+dBkA4NOnTxCJRHB1dYWtrS0yMzNx5swZmJubY/369bh06RJ9CADgwYMHuHLlCg4dOlToTF+aWCxGZmYmL1bU3pllih5iskuvfyd26bV0bdmyhQAgK1as4PajvHfvHgFAtLS06PJCsUuvTGF8fX3J6tWrSVJSEiG5l1unT59O9u3bR96/f0/EYjFXu2jRonxH/m8f1OfPn/NiJPdS7YcPH3gxR0dHUr9+fZKSksKL5/H39ye7d+8m169fp1OFEovFZMKECWTZsmV0qoCEhARiY2NDvLy8SGZmJp0uICsri1y7do04ODjQqWLFxsaW+v8xdumVYUogLS2t0FV4Bg0ahGHDhsHd3R12dnb5jmCYH4uNjYWrqyvCwsKwY8cO7nJkvXr1cPbsWdSsWROnTp3iVuFB7mgyP4FAgKpVq/JiyB1F0Y8ujRgxAs+fPy+0HgBatmwJQ0ND6Orq0qlCCQQCXL58Gfv27aNTBVSrVg3Tpk1D165dIS0tTacLSElJwbhx43568QBlZWXMmzePDpc71iiZSsfKygqxsbEwMjJC/fr1ebnC1oBlmJKoUaMG+vXrhyFDhtApCAQCTJ06FTt27ICMjAwX37FjB69u3rx5aNWqFS9WHBUVFTr0V8p7bvJX9OjRgw6VO9YomUolOTkZVlZWkJCQ4BYbyG/AgAEYOXIknj59iitXrtBphmEqIdYomUrFysoK8fHxWLlyJVRVVek0wEaVDMNQWKNkKo3ExERYWVlBWlq62DVdhUIhRo0aBS8vL9ja2tJphmEqGdYomUrDysoKSUlJWLlyJe+5rsKwUSXDMHlYo2Qqhbi4OFhZWUFWVrbY0WSePn36QFdXFy9evMCFCxfoNMMwlQhrlEyloKysjM2bN2PlypU/XNg5z8qVK2FgYPBXzLpjGObPYY2ygpCUlMTx48fpMPMTVqxYgS1bttDhImlpaeHw4cO8pcUYhql8WKOsILS1taGtrU2HGYZhmDLGGiXDMAzDFIM1SoZhGIYpBmuUDMMwDFMM1igZhmEYHmdnZ2zYsAELFy6Enp4eBg4cCF1dXcybNw8mJia4evUqUlJS6MP+WaxRMgzDMHj9+jVmzZoFJSUlDB06FJs3b4adnR3evn2LjIwMBAQEwNHREdu3b8eECROgoKCA0aNH4/bt2/Sp/jmsUeb69u0bHforfP78mQ4xDMOUmoCAAOjp6aFz5864ePEi+vTpg4sXLyI5ORkxMTF49+4dHj9+DF9fX0RERCArKwu3b9/GtGnT8PDhQ4wcORI9e/aEp6cnfep/RqVslE5OTggICODFlixZwv05Ojqal/P398euXbsgEolw584d2NjYQCQSwd7eHmvWrOHV0jIyMnDhwgUkJSXRqR9KTExEYmIiFi9eTKd4MjMz4ebmhvj4eKxfvx45OTl0yU/z8/NDdnY2HS7U+/fvcfbsWYjFYjrFMMxf7Ny5c2jVqhWcnZ2xcuVKhISEwMHBAZMnTy6wV2YeKSkpDB8+HDY2Nvj27Rt27NiBoKAg9OzZE2vWrAEhhD6kwqu0jbJhw4b4+PEjTp8+DZFIhKFDh+L69etYsGABjh07huTkZK5eLBZDSkoKQqEQTZs2RUREBIRCIXr06AEJieK/hLKyspCRkYGrqyudKlZSUhI+ffqEo0ePYvPmzbzcw4cPYWNjwzVEGRkZZGdn4+TJk5g/f36p/KAGBwdj586ddLhQLVq0gI2NDRISEugUwzB/qbVr12LmzJkYPnw49//9R2sg0xQVFbF69WqEh4djzZo12LlzJ/T09JCenk6XVmjF/5b/x1WvXh39+vXD+/fvsWDBAmRnZ2Px4sUwMjIq0AADAgIgEonw7NkzfP78GSKRCB4eHrwa5DY4mqKiIrel09u3b+Hr6wsAyMrKwsaNG7FlyxbY2NjA1dUVN2/ehKurKywtLWFoaAhDQ0MoKyvzzte/f3+oqKjg1KlTvNj06dOhoaGB79+/8+p/xfHjxyEvLw9zc3NMnjwZFhYWdAlPy5YtC3yeDMP8nRYtWoRt27bBxMQE9vb2pfJ/19LSEmfPnsX169cL3by6IqtUjVIsFkMkEiEsLAy3bt3CxYsX8fXrV9SoUQMikQiysrKIi4uDnZ0dnJyc6MNLRCQSYdCgQViwYAGWL1+OmTNnYsqUKXj16hVEIhGCg4Ph4uKClJQUSEtLY+rUqTAyMsL06dPRr18/jB49Gv369UNcXBzOnDmD5s2bc+eOi4tDaGgoAHB/R3516tSBmZnZb18CPX36NDp06IBly5bB3NwcGRkZP1xIvGrVqnSIYZgyEhUVBXt7+1+6irN//34cOXIEu3fvxtatW+n0b5kxYwbu378PNzc3zJ49m05XWL/cKF+/fo0RI0ZASkrqr/14/fo173OWkJCAUCiEmpoaRo0ahRUrVuDmzZuoU6cOAEBJSQkHDhxA7969oaenxx0nEAjQtm1biMViREVFYcmSJcjIyICWllaBdUB1dHTg4uKC48ePY9++fRg8eDDMzMzQqVMnCIVCDBs2DEZGRtz1/yZNmkBOTo53jpiYGC6XX/Xq1REaGgpDQ0OkpqbycmKxGEuXLsWoUaN4GxK/e/cOIpEIIpEI9+7dw4kTJ7BhwwYcPXqUd3weZ2dnvH//HmZmZgCAV69eoUuXLlBQUKBLebKzs/HgwQOcPXv2r50YxTD/ijdv3kBXVxdBQUF0qlguLi4wNDTE7NmzYWhoSKdLxYABA3DixAlYW1v/M9vU/XKjdHNzQ5UqVfD169e/9qNNmzb0p13A169fea8JIWjUqBEv1rp1awwYMAAHDx7ExIkT0bp1azx48AAXL17E5MmTebX5vXjxAhoaGrxRYUlYWFhgw4YNdBgCgQA9evSAubk57z5kYmIiVq5ciaVLl6Jz5868Y5SVlREfH48WLVrAw8MDQ4cOxaZNm6Cvr8+rAwBPT09kZ2djx44dEAgEyMnJwe7du7F8+XK6tACxWIwBAwZg+PDhGDt2LB4/fkyXMAzzB6WkpGDSpEno3r07Tpw4QadL1bx587Bo0SL8999//8TM/V9ulAAgLS0NNTW1v/ZDWlqa/pQ5vr6+CAwMRL169SAUCrmPvNFlfq6urvj06RPatWsHGRkZILc5zZkzB2ZmZhg3bhwiIyN5xzx9+hTBwcHo3bs3L/4jt27dwtixY6GiokKnOEpKStyI1NPTE1OmTMHatWsLbcgqKioYM2YMVFRUoKSkhOrVq9MlnB49emDEiBHc6xMnTmDz5s1Fzn7LLysrCwBQu3ZtODg4IDY2li5hGOYP2rdvHxITE2FrawtJSUk6Xer27NmDOnXqYN26dXSqwvmtRlnRiMViLF++HDVq1ICsrCyaNGmCWrVqYcCAAbh58yZmzZqFevXqAQAiIiKQlpaG06dPQ1lZGcOGDUNSUhIUFRW58ykpKcHKygrHjx/nzRZ7+/YtFBQUMHLkSC6W10iKY2Njg7S0NPTr149OceLi4hAZGQmxWIwtW7bg6NGjuHTpEmrXrk2XFpjUQwjB8+fPIRKJ4OrqWuxzT+fPn4dQKETDhg3pVKHyz3KrXbs2Ro8ezcszDPPnJCQkYMeOHZg1axbU1dXpdJmQkZGBsbExbG1t8f79ezpdoVSqRikhIQFDQ0Ns3LgRrVq1AgCoqqpi7dq10NLSQsOGDWFqaoqsrCy4u7tDTk4Oc+bMQYcOHbhGICsrS50VqFmzJvfn8PBwNGvWDG3btoWMjAz8/Pxw/vz5Yp9JfPfuHaytraGtrY2JEyfSaR55eXmMGzcO7du3R6tWrWBtbc1r3vmlp6fDxMQET548wePHj9GhQwduNq9AIICUlBR9CCIiImBra4vhw4ejRYsWdLpIiYmJdIhhmL/E1atXkZCQgIULF9KpMjV//nzIyMjg0KFDdKpCqVSNEgA3QvLx8cHOnTuhpqaGAQMGQFZWFq6urjA3N8f06dN5k2VEIhGOHDkCY2PjfGcqnKqqKu+Sb5s2bdC2bVt06dKFV5cnLCwMEhISmDVrVolGbzIyMnj48CHu3r0LXV1dOs2jpqaGbdu2oXfv3tDW1kb//v15l5npzykwMBCBgYGYNGkSatSowcv9yM8+f8UwTPm5e/cuVFRUCvyfL2tycnIYNGgQ7t27R6cqlErXKAHAwcEBX79+xZIlS7jLo4qKinj06BHMzc1ha2uL6dOnAwBCQ0OhqakJQ0ND3uXNn7nu/t9//xX5+ISamlqh9xaLIyMjAzU1NTr825o0aQItLS06XCIHDhygQwzD/AVycnJw9+5d3kz+8qSrq4uPHz8iODiYTlUYlbJR6ujoQEdHp8BjGYWpX78+6tevT4fRoEEDOsQwDPPX+fr1K1JSUsp9NJmna9euAABvb286VWFUykbJMAxTWeStXZ3/+erylPf30k8GVCSsUTIMw1RQs2bNQu/evYv9yFshp7hHzspSrVq1IBAIEBUVRacqDNYoGYZhKqjq1aujVq1axX7kzYr/0epaZUUgEEBRURFpaWl0qsJgjZJhGKaC2rt3L+zt7Yv9yFtGLiIigj68XGRnZyMxMbHQxVwqCtYoGYZh/mF5DepP3SMMCQkB/uCl39JQokb58eNHOlSsuLg4OsQwf6379+/z9h9lmH9J3jPOf2rW6Zs3b4B/uVGmpqbCwMDgp/YW+/jxIxo0aMDtPsGUDpFIhPXr19Nh5jeFh4fj8uXLBRbHZ5h/hZKSEtTV1f/YQ//37t2DtLQ0OnToQKcqjGIbZdWqVZGdnY2goCDs37+fThfKysoKKSkpP72yC/NjdnZ2dIj5TVu2bAEAaGpq0imGKTd79uzBhQsX4OXlVSaTXqZOnQpPT0/Ex8fTqTLn6OiIIUOGFLnUZkVQbKMEwG3YW5J9xd6/f4/jx49DQ0OjRFszMcyfFBMTgxMnTqB3796FruHLMOXB398fRkZGmDZtGrp3746qVauiQYMGGDx4MJYuXYqDBw/i4cOH3Kbtv2L8+PEghOD06dN0qkw9ePAAoaGhf2xVoNLyw0bZokULLFy4EMHBwdi7dy+d5slrpnnNlWH+Ztu2bUN2djZ0dHToFMOUm1atWoEQAh8fH9jb22Pz5s0YMGAAUlNTcfHiRSxduhQDBgxAgwYNIBAIitx0vTgdO3ZEr169sHXrVqSkpNDpMmNsbIx69eph0qRJdKpC+WGjRL7Gt2vXLjrFefv2LU6ePInGjRtj6dKldJph/ioxMTE4cuQIpk6dym4TMH+Ftm3bYvTo0Vi3bh2sra1x4cIFzJ8/n3dvr3PnzoVuul4SBw4cwPfv30t0dbA03Lp1Cy9evMC2bdsq/BWbEjXKpk2bwsDAAGFhYUV+kdlokqlIdu/ejYyMDJiamtIphvmjrl69ioEDB6Jhw4awtLTkRoDKysq4fv06XV5inTp1wowZM7B161Y8f/6cTpeqiIgILFy4EB07dsSMGTPodIVTokYJ6l6lWCzm5Xx9fXHmzBloampi0aJFvBzD/G3i4+Nx4MAB6OnpsUk8zF/h69evWLt2LVRUVDBhwgQ8f/4cBgYG8PHxQfv27QEAtra23KbLcnJycHNzo87yY3v37oW6ujpGjBiB8PBwOl0q0tLSMGTIEKSmpuLKlSt0ukIqcaNs0qQJlixZgvDw8AKjSjaaZCqSffv2ISUlhT3CxPxR2dnZsLOzw+DBg9GoUSNs27YNGhoaOHnyJMLDw3H48GGIRCJcu3YNFhYWGDx4MHestrY2tLW1uSZaUsrKynB2doZYLMbAgQO5xQBKS3JyMsaNGwcfHx84ODj8M29ES9woQY0qc3JygNyHSc+ePYvmzZv/8rVzhikvycnJ2Lt3L3R0dNCqVSs6zTBl7uvXrzAxMUH9+vWhp6eHZ8+eQV9fHz4+Pnj27Bnmzp2LqlWr4unTpzAyMsLgwYOxYcMG+jS/rFGjRnj48CHi4uLQuXNneHp60iW/JCQkBFpaWhCJRHBwcECfPn3okgrrpxplw4YNsWzZMkRGRsLV1RVgo0mmgjl48CDi4+Nhbm5OpximzGRnZ+PatWvc6HH79u0FRo9t27bl6iMjI6Grqws1NTVcvnwZAoGAd77f1a5dO7x69QoaGhro2bMn9zzxrzp79iw6deqE2NhYPH36FCNHjqRLKrSfapTI1xBdXV3x/ft3nD9/Hi1btsT8+fPpUob5q6SlpcHKygpDhgxBx44d6TTDlLr8o8fx48dzo8e3b9/yRo/5ZWdnQ1dXF/Hx8bh16xaqV6/Oy5cWFRUVPH/+HNu2bcOWLVvQsGFDXLp06aceH7l//z66dOmCWbNmQU9PD76+vj99Obgi+OlGqa6uDkNDQ6SkpODFixcAG00yFcSxY8cQExPD7k0yZc7Ozo6bubp9+3Y0bNgQZ8+eRUREBA4fPlzsZf/z58/j6dOnOHToENq1a0enS52xsTECAwPRs2dPTJkyBQoKCtDW1sa6detw8OBBXL58GQ8ePICdnR2OHj0KCwsLDB06FPLy8hg0aBDk5eXx7t07HDlypMya+h9HKJmZmWTs2LF0mCc0NJQAIABIq1at6DRTBlxdXUmLFi3oMFNCGRkZRFVVlQiFQjpFTp06RYYPH06HfygyMpLMnTuXDjOVVFBQEPnvv/9I3bp1CQCioKBAlixZQnx8fOjSYsXExJDTp0/T4XLx5csXsnPnTtKzZ08iEAi43/P0R+vWrcmGDRvI69ev6VP89VxdXYmVlRUdLtZPjygBQE1Njdu6pXnz5nSaYf46p06dQnh4OFtYnilVefceBw0ahEaNGsHS0hINGzbEqVOnEBUVhQMHDvDuPZZEzZo1MXv2bDpcLho2bIhVq1bBw8MDYrEY3759g6+vLx4/fow3b94gJCQEhBD4+flh48aNFXqh85/xS43S09MTUVFRAICHDx+yLYqYv1p2dja2b9+Ojh07YsCAAXSaKWeJiYmwsbGBnp4eOnbsCHV1dcjLy0MgEKBevXpo27Ythg0bhv379+Pbt2/04X+Fr1+/wtjYmLv36OXlBQMDA7x9+xaenp6YM2cO5OTk6MMqHFVVVbRp0wa9e/dG+/btUb9+fbqkUvilRpk301VVVRUJCQkFnqtkmL/JuXPnEBwcjM2bN9Mpphz5+/tj7NixUFJSwowZM5CTk4NJkybB3Nwctra2cHZ2hqWlJWbPno0GDRpgw4YNUFNTg5aWFhwdHenTlbvs7GxcvXq10NFjREQEDh06VOy9R6YCo6/F/ugepbu7OwFA6tevT0aPHk2kpaWJoqIiiY+Pp0uZUsTuUf6anJwcoq6uXuy9dHaPsmwFBQWRKVOmEACkXbt25MSJEyQxMZEuK5S9vT0ZMWIEAUC6d+9Onj59Spf8tIULF5JRo0bR4SIFBgaSNWvWkDp16nD3HhcsWPDT9x6Zv0O53KPMGz3269cPVapUwcqVK5GUlMRGlcxf6dKlSwgODsamTZvoFFMOHB0d0b59e/j7++PWrVvw9vbGvHnzSrw34ejRo+Ho6Ig3b96gdu3a6NmzJ7Zt20aXlZi1tTWOHTtWokcYLl26hIEDB6JJkybYsWMHGjZsiNOnTyMqKgrHjh376XuPTAVGd87iRpRubm4EAOncuTPZu3cvmThxIomOjiZVqlQhVatWJbGxsfQhTClhI8qfJxaLiaamJmnVqhURi8V0msNGlGXD2NiYACBDhgwhqampdPqXmJiYEABk6NChJR6V5vH29iaysrJEKBSSnJwcOk1IvpmreaNHJSUlsmjRIvL27Vu6lKmgynxEWdgqPLVq1cLKlSuRmprKRpXMX8XOzg4BAQFYv359qa9swhRv48aN2L59O0aPHg0HB4dSm9iydetW7NmzB3fv3sX48eMLbNBQlPj4eIwaNQq1atXCtWvXICHx/7/68u49Dhw4kLv32KhRI5w+fRrh4eGlfu/x27dvePr0KR3m/MwD/6UpNTUVTk5OyMrKolOFiouLo0P/rBI3ykePHuHmzZvo1q0bJk+ezMutXLkSVatWhZWVFWJiYng5hvlTzMzMoKmpiYkTJ9IppgSEQuEvbWptZ2cHMzMz9O3bF3Z2dpCWlqZLfsuKFSuwfv16ODs7w9DQkE4XQAjBxIkT8e3bN9y8eRM1a9YEcmeu/vfff1BTU8OECRPw4sULLFq0iJu5Onv27FJp8EZGRkhPT+def/v2DR8+fABy90V99OhRvmrg9OnTuHDhAkQiEXbv3o2LFy9CJBLBzMzsh9tsRUZGwsLC4qebGCEE79+/R+PGjbF79246zRMcHIyLFy8iLS0NK1asoNO/5OrVqyV+euLmzZs4ffo0HS5TJW6UhY0m8ygrK2PlypVIT09no0rmr+Dg4AB/f3+sW7eON3pgylZ0dDRmzJiBpk2b4tatW5CUlKRLSsXGjRsxatQo7N+/v0CjoW3ZsgX37t3Dnj170L59e1y5coUbPe7YsQONGzfmRo8HDx4s1dEjckdqVapUgZeXFzZt2oTk5GQ0bNgQS5cuxf79+wv9+WzTpg2EQiEUFRXRrFkzCIVCtGjRAvLy8nQpT926dZGWlgYlJSU6Vazbt28jMjISJ0+exH///cfLxcXF4eLFi8jMzARyV2dTUVGBSCTC3r17ebW/ysvLC0FBQUDuz1BxBg8ejHv37tHhMlXwO1SIhw8fwsHBAT169MCECRPoNJDbQBUVFWFlZcU9Y8kwf4qZmRnU1dUxbdo0OsWUIRMTE24fwmrVqtHpUiMQCGBjYwNlZWUsWrQIhBC6BMhdi3TDhg3o1asXQkJCoKamhokTJ+LZs2cwMDCAr68vnj59Wmqjx6L4+vpCSUkJnTp1QpUqVSAUCtG6dWtYWFggMzMTsbGxXK1AIMDLly8hEonw8eNH7s/v3r0r0FQ/ffrE/fnz588QiUSIjo6Gm5sbRCIRrly5grt37wIAAgICoKenh507d+LatWsQiUS4fv06Hj16hFOnTsHX1xe7du3Kd/b/UVZWRrVq1XhbcvXv3x9TpkyBv78/kpKSePU/KykpCUFBQXBzc4O5uTm6d+8Ob29vuowjEAjKffuuEjXK4kaTeZSUlLBy5UpkZWWxUSXzR7m4uOD169cwMTGBlJQUnWbKiL+/P06fPo0ZM2aUy4ot1apVw7Zt2+Dv74/jx4/TaYSFhWHSpEkAAA8PD1haWnKjx6ioKBw6dAht2rShDys1sbGxEIlE+PbtG75//46AgADIy8sjPT0dIpEILVq0gL29PSQlJREfH08fjvj4eGRkZBR7z9Ld3R39+vXD6tWrcfHiRTx48ADXrl3j8nXq1OFGoZqamjh37hxWr14NPT09CIVCjB07Ft26dYOMjAzWrFmT78z/a6wuLi4Qi8UYOXIkmjRpwsu/efMGN2/eLPEM5qKsXbsW27dvx6JFizB79mwMGTLkh7OSy/3/NT27h5716uLiQgAQLS0tXl3erNf8kpKSiJKSEpGUlCTfvn3j5Zjfw2a9llzPnj2JqqoqycjIoFOFYrNeC9e3b18ycuRIOlykWbNmkapVq5KoqCg6VWbEYjFp1aoVadiwIZ0iXbp04a1POmXKFHLlyhXy8uVLurRMLVy4kJDc/8Nbtmwhrq6u3EenTp1IdnY2r/769eskPDycGBgYkIiICPLy5Uvi5OREnjx5QiIiIni1+eXk5JCpU6cSY2NjOlUsKysr4uXlRYcJIYT4+fmRMWPG0GHi4eFBVqxYUWD28JUrV8iDBw+Im5sbMTc3JwcOHCCLFy8m7u7uvLo8p0+fJv7+/tzrZcuWka9fv/JqaGlpaWTFihXk1q1bZMuWLeTdu3d0SbHKZNZrSUaTeRQUFLBy5Urk5OSwUSXzR7i5ueHp06f477//ICMjQ6eZMpKTkwM7OztMnjwZtWvXptNlRiAQYOXKlQgKCoK/vz8Xj46OxsKFC7FmzRoMHToUTZo0wcWLFzFhwgR07twZAoEA6urqGDRoEBYtWoRnz57xzltW6Bml7du3L3AfV1dXF05OTvj+/TuUlZXRqVMnbN++HWfPni1ykk5OTg5WrVqF7du3F9i2qzjBwcGIiIhA165d6RQAoHXr1rhx4wYvduHCBTx79gx79uwpcClYW1sb/fv3h7a2NmJiYrBkyRIcPHgQvXr14tUBwIMHDzBp0iS0bNkSyB31a2pqQl1dnS7lyc7Ohry8PHR0dDB//nxMmTIFPj4+dFmp+mGjnDhxIrS1taGrq0unCrVy5Ur0798f/fv3p1MMU+Y2bdqEWrVqYcGCBXSKKUOPHj1CUlLSL82S/V2jRo2CQCDg/UKvXbs25s2bB0tLS9y5cwcBAQEghMDX1xf29vbYuHEj+vTpg8TERFhbW0MkEvHOWZoSEhJga2uLhIQEOlVAVFQUdu/ejTFjxkBZWZl7s9eyZUusWrUKFhYWmDBhAq/hZmRkQF9fH7Nnz/6ptVizsrKwc+fOEi/GkZycjJkzZwK5M48Lo6Kiwv05b+OMogwYMIC7LxwdHQ1PT08sXbqULisgb1IRcr/P9+/fR926dXk1pe2HjXLWrFlwc3Ojw0WqWrUqHjx4gOHDh9MphilTr1+/xv3797F69eoynZjBFPTs2TPIyMhg8ODBdKrM1apVC926dSvRqLBNmzYYPXo0NmzYgPPnz+PZs2dITU0tMNOzNHz+/BljxozBiBEjMHr0aDRq1AhNmjSBv78/YmJiICUlhWnTpiE6OhqxsbEIDg7G06dPYWhoiBo1ahS4D9esWTNcunQJV65c4R65+fbtG/bt24etW7eiSZMmIIQgNTWVd1xhgoKCYGVlhU2bNkFWVpZOc/JGaq6urhg3bhz09fUxdepUugzIN1tVLBbj8+fPCA8Px4kTJ2Bubg5DQ0M8fvyYPgTI/TrdvXsXRkZGdKpQ+R+1AYAaNWr8+UbJMBWFqakpqlevjkWLFtEppoyFhISgZcuWf+wNSqdOnXizMv8GjRs3xpUrVzBt2jTIycmhSZMmePz4MebMmQNCCAgh6N+/P9zd3ZGeng51dXWMHj0aAoEAly5dwrBhw+hT8nz79g3v37/HmjVrULt2bVStWhUPHz7E1atX6VJOTEwMLl26hM+fP8PY2PiHGy3Xrl0bbdu2xYEDB2Bvb4+ePXvSJZz09HQcPHgQXl5ekJaWxoEDBzB//nyYm5vD0tISDRo04NXnXa6PiIjA9OnTebnifP/+nQ6VOdYomX+Cv78/HB0dYWRkBAUFBTrN/AJCCOLi4uDh4fHDDx8fnx9eaitLderU+esaJQDIyMggPDwczs7OuHDhAqysrFClShWoq6vDzs4O5ubmcHBwQFpaGgAgNDQUy5cvh6ysLEaMGMGdp7A3IPXq1Stwi2vAgAE4evQoL5ZfRkYGJk+eXOC4oqiqqsLX1xfXr18v9HPIr0GDBliyZAl69OiBBg0a8O69ysjIoGHDhrz6N2/eYNSoUYXevyyOurp6ucyq5qFn99CzXotS2KxXpuywWa/FGzduHFFQUCBJSUl06ofYrNfC9enThzdrtLgPBQUFMnnyZPoU5ebgwYOkkF9nf1xSUhLx8/Mr8QzsomZ8/uy6tkzRymTWK8P87QICAnD9+nUsW7aMjSZLWa9evfDkyZMffjRu3Pi3Hzz/HcnJyRAIBEUuPPCnKCgooHXr1iWegV3UjM/ffVaR+T2sUTIVnpmZGapUqYLVq1fTKeY3CAQC1KhRA1paWj/8aNq0KSIjI+lTlJvw8HDUrVuXLX7PlAnWKJkKLSAgALa2tli0aNEPJyYwZadOnTqIiIigw+UmIiKC92gCw5Qm1iiZCm3r1q2QkpKCsbExnWLKUceOHREaGvrHdg969uwZOnbsSIcZplSwRslUWMHBwbCxscGCBQtQq1YtOs2UozFjxoAQAnt7ezpV5t6+fYugoCDeLFGGKU2sUTIV1rZt24DcRZWZP6t27dro0KEDbt68SafK3M2bNyEpKfnD5w4Z5lexRslUSOHh4Th9+jRmzZoFVVVVOs38Afr6+txyceUlIyMDBw8exLRp04pc4zQtLQ1v376Fg4MD9u3bB0NDQ4wcORKtW7dG1apVceLECfoQhuFhjZKpkHbs2IHs7Gxs2LCBTjF/yLx586ChoYHFixfTqTJjaWmJqKgobN68mYv5+flh+vTpaN68OVRVVVG1alW0adMGo0aNwooVK2BtbY2oqCg0a9YMixcv/iPr0zIVC2uUTIUTExODY8eOYerUqUU+d8aUP0lJSVhYWODevXvlMkp79eoVtm7dioULF/IWA2/Tpg3CwsLw8eNHREREQFlZGfPnz8erV6+QkpKCuLg4eHl54caNG9i5cyebLcv8EGuUTIWza9cupKenw9TUlE4xf9jUqVMxYsQILF68GK9evaLTpSY2NhY6OjpQU1PD1q1b6TQuXrzILakXFxeHEydOQFdXF4cPHy50k2SGKQ5rlEyFEh8fj0OHDmH8+PHQ1NSk00wpEolEcHBwoMPFEggEsLW1haamJkaPHl1mixBMmjQJSUlJuHPnDpSUlOg0VFRUcP36dQDAlClTcOjQISgoKGD16tWoV68e5s2bB19fX/owhikUa5RMhbJnzx6kpKTAzMyMTjF/CQUFBTg6OiI9PR1dunSBn58fXfLLYmNj0adPH7i4uODSpUto1qwZXcLR0tLC5s2bcfHiRaiqqsLPzw+urq4YPnw4zp49i3bt2kFbWxuXL19GdnY2fTjDcFijZCqM5ORk7N+/Hzo6OmjVqhWdZv4ijRs3xvPnz6GgoICePXv+9Mi0MH5+fujSpQt8fX0hEolK9NzkunXr0K9fP8ycORNBQUEQCoW4du0aQkJCsGHDBnz69AmTJk2ChoYGNm7ciKioKPoUDMMaJVNx7N+/H/Hx8TA3N6dTzF+oYcOGeP78OXr06IFRo0ZBR0cHnz59ost+KDY2FkuXLkXHjh0hKSmJ169fo2/fvnRZka5evYqqVatCV1cXmZmZQO6l2Y0bNyIkJAQXL15Eo0aNYGZmhgYNGmDq1Knw9PSkT1Phubq6wtTUFPr6+hg/fjwGDRqE0aNHY86cOVi9ejVsbGyQmJhIH8awRslUFGlpadi5cyeGDBnCliqrQBQUFODi4gIbGxu8efMGzZo1g56eHo4fP47AwEC6nPP9+3fY2tpCX18fmpqasLa2xsaNG+Hj41NgX8MfqVmzJuzs7ODn54f//vuPl5OWlsbkyZPx5MkT+Pj4YMaMGdwGxV26dMHZs2eRkZHBO6YieffuHRYuXIgaNWqgf//+2LRpE65evQofHx+kp6fjy5cvuHPnDnbt2oUZM2ZASUkJw4YN4+7vMrnofbfYfpR/p8q+H+WuXbsIAOLh4UGnfhvbj7L8HDhwgHTt2pXbx1JOTo40aNCAdOrUifTs2ZM0btyYKCoqcvnGjRuTtWvXkpiYGPpUP23nzp0EALlz5w6d4omLiyP79+8nTZo0IQBIrVq1iLGxMQkJCaFL/1pfv34l06dPJxISEkRSUpIMHjyYWFtbF7mvZU5ODnFxcSFz5swhSkpKBADp0qULcXZ2pksrPLYfJfNPyszMxPbt2yEUCtGzZ086zVQgS5YsgZeXF8LCwnDgwAEsXLgQQqEQKioqUFRURPfu3TFz5kxs374d3t7eCAwMxJYtW1CzZk36VD9t1apVMDAw+OFM3OrVq2Pp0qUICAjAnTt30KNHD2zfvh0NGjSAnp4eHj58SB/yV3F0dETz5s1x9epVGBgYICgoCM7Ozpg5c2aR+1pKSEhg4MCBOHXqFCIiIrB//35ERkZiyJAhmDlzJnJycuhDKhe6c7IR5d+pMo8oDxw4QACQ+/fv06lSwUaUzI8EBQWRVatWkRo1ahAApE2bNuTo0aMkNTWVLv2jtm/fTgCQ/v37k8jISDr90zZt2kQAkCFDhpCkpCQ6XSGxESXzz8nOzsbWrVvRsWNHDBgwgE4zTLnQ0NDAzp07ERYWhtOnT0NGRgb6+vqoV68ejIyM8PnzZ/qQcmdqagpjY2Po6+vjwYMH3IILv2P9+vW4fv063Nzc0LdvX6SlpdEllQJrlMxfzdraGuHh4by1PBnmT6lSpQpmz56Nly9f4unTpxg5ciQOHToETU1NjBgxAnfv3gUhhD6szF28eBGbNm3C2rVrceTIETr9W3R1dSESifDq1StMmjSJTlcKrFEyfy2xWIxNmzahVatWGD58OJ1mmD+qR48esLGxQVhYGDZv3gxfX18MGzYMzZs3x759+5CUlEQfUiZevHiBOXPmYOTIkdiyZQudLhXdunXDlStXcOvWrUq5STprlMxf68KFCwgODsamTZvoFMP8NWrVqoW1a9ciODgY169fh4aGBlasWAEVFRUsXLgQ/v7+9CE/9OLFCzpUqJycHEyYMAHNmzfHlStX6HSpGj9+PNavXw9LS0t4e3vT6X8aa5QVhFAoxLt37+jwP0ssFmPjxo1o1aoVdHV16TTzA5GRkQVmKi5btqxALM/3799hbW0NkUjE+3B1dYW7uztdzkMIwdOnT+lwiV2/fr3Eu40kJyfj/Pnz5X5588uXLyXaZ1NXVxcuLi74+PEj5s2bh4sXL6J169bo379/iRuZl5cXunbtCltbWzpVwOnTpxEUFIRLly5BTk6OTpc6CwsLNG3aFKtXr6ZT/zTWKJm/0rVr1xAQEID169dDIBDQaeYHjhw5An9/fzx8+BDm5uYwNzeHh4cHNm3aBHNzc7Rv3563Sk5WVhYCAgIgFArRoUMH3L17F0KhENra2ti/fz/v3DSBQICQkBCcPn2aTv2Qr68vAgICUKNGDV783bt3yMrK4sVu3bqF27dvo379+khISODlfoWTk1OJLyM2atQIs2bNwvfv3+lUoZo2bYp9+/YhIiIChw8fRlRUFCZOnAgNDQ1s374dsbGx9CGcTp06oWvXrpg7dy6CgoLoNCc9PR0bNmyArq5uuS3pKCEhAVNTU7i4uMDNzY1O/7NYo2T+OoQQWFhYQFNTExMnTqTTTAnVrl0b/fv3x7hx46Crq4sXL15g4sSJUFFRgbe3N5o2bcqr//r1K0QiEZ48eYLg4GCIRCI8evSoyGfv8mvUqBHq1atHh0EIwZs3b5CcnIxHjx5xO5I8ePAABw8ehLm5ORo3boxx48bxjqtbty527NiBo0ePcrFRo0ZBIBBAKBSievXqvPpfERkZiaioKFhYWGDdunU4fvw4XcLTunXrn36eU15eHgYGBtyC7N26dcOGDRugpqaGOXPmFLqDiZSUFG7cuAEZGRnesns0R0dHREZGYuHChXSqTE2ePBnVqlX74dfrX8IaJfPXuXXrFvz9/bFu3TpISLAf0Z/1+PFjBAUF4f79+zAyMsL3799hb28PkUiEx48fo0WLFjh//jxvpEgIgYaGBoRCIXr37o0GDRpAKBQWuqbqrVu3uPM5ODjg1KlT3LJoIpEI+/fvR/369REYGAiBQID379/j0aNHaNiwIfr06QMdHR0MGDAAVapU4Za0o9WoUQPr1q2Djo4OLz5hwgSEhITgw4cPvPjPSkpKwsOHD3H69GmYmZkhLS0N0tLSdBnP7zZnoVCIq1evIiQkBKtXr4aTkxPatWsHLS0tXLp0iTeCVlNTw6VLl+Dt7V1g2b089+7dg6KiYrk/NiUpKYnRo0fj9u3b5X4J/E9hv4WYP47eSHfz5s1QV1fHrFmzeHGmZLS1tdGwYUMMHDgQu3fvRkJCAtfwmjVrhsjISOjp6WHZsmXcMQKBAF+/fsXly5cxbdo0tGzZErt378ajR4/ynfl/Ro0aBQUFBTRq1Ag6Ojro0aMHnj9/jnbt2kEoFGLZsmUIDQ1FkyZNgNy9I0eMGAENDQ3ujY9YLMaJEycKbJeWlJSEq1evwszMDJmZmVBTU+Pl379/jydPnqB58+ZcLP+IKysrC58/f4abmxseP37MxfPLycnBpk2bsHPnTgBAQkICXrx4gdmzZ9OlPElJSdi/fz9evnwJsVhMp0uMXpBdIBBgypQpUFdXh7m5ObeDydChQ2FiYoK9e/fCycmJPg3u3LkDHR0dSEpK0qkyp6uri/j4eLx8+ZJO/ZNYo2T+uK5du2Lx4sUIDg7G3bt38eLFC5iYmNBlzC+6ePEi7/WVK1cQHR3NiykqKmLBggW4ceMGzp07h1mzZiEzMxPx8fEwNTXl1QLAwIEDoaGhgeTkZBw9ehTbt2+nS4p14sQJzJ49G1WqVOHFFRUVMX78eHTs2BHh4eG8nJ+fH969e4fJkyfz4qGhoTA3N4eZmRnGjRsHFxcXiMViSElJ8eqQ20jv3r0LMzMzqKioAADMzMywdu1aurQAWVlZzJo1CyKRCG3btv3tUS29IPvIkSOxc+dO1K1bF5MnT4aHhwe2bNkCLS0tTJ06FREREdyxiYmJCA0NRZcuXXjnLC9du3YFAPj4+NCpfxJrlMwfl5OTg8OHD0NDQwN6enqoV68e9PX16TKmFOU1iTxisRhXrlxB3bp1uQYQFBSE8PBwzJ49G4cPHy4wgSY+Ph5LlizBxo0bf2pUExwcDEdHx2LvrY0ZMwYaGhpA7mXhY8eOISkpqdAZ0I0bN4a5uTksLCygp6eHAQMGFLkucE5ODkaMGAF5eXkAgIeHByQlJTF06FC6tACxWIxq1aph5cqVsLa2xsmTJ+mSX9a2bVucOHECYWFh2LNnD54/fw4tLS107NiR23cz//36vDc6qqqqXKw81a1bFwKBoMAbrn9VpW6UkZGRJb6E8u3bNyD3ckd5bruTkpJS4h3iIyIi/voFmwuT/z5kSkoKvn37hgkTJuD169e8OqZkLl++DG9vbzx79oyb2Xr16lUgd6ZnlSpVICEhgZSUFADAmzdvYGpqig0bNqBJkya8JrpkyRJcuHABgYGBvOXLwsPDYWZmhm3btkFZWZmL/8iXL1+gr6+PM2fOlGg286dPnzB+/Hh06NCh0MZHEwgEqFq1Kh3m5B/Bvnz5EhcvXuQuwf5I/n9/165dS3zcz6hevTpWrFiBT58+4c6dO1BTU8P69esRHx8PNzc37lJ1XoOi3/CUF2lpadSsWZM1yn/ZjRs34O3tjT179iA4OJhOw9bWlvfMk4uLC86ePYucnBxcv34dsrKyAIDPnz/j3r17sLOzQ0xMTL4z8N2/fx8WFhZ0+IeePXsGLy8vuLq68i67FObmzZtISkrCly9fYGdnR6d/yYMHD+hQoeLj42FlZfXLz9IVdons6tWr6NSpE9asWUOnmB+QlJTEpUuXMHr0aDRt2hSzZ8+GiooKhEIhUlNTceHCBUhKSsLV1RUA0KBBA+zZswd16tRBampqgf0eVVRUYGVlxf1SdnV1xdOnT7Fv3z6kpKTAxsYGPj4+XOMtTHZ2No4cOYJdu3bh8uXLqFWrFl3Cyc7OxrZt27BkyRJYWlri9OnT6N69O10G5DYMc3NzbNmyBdbW1sjKyoKbmxv3GMzBgwfpQ4Dcx4+cnZ1x8ODBEk8YS09Pp0Nl4tOnT3j48CFCQkLQrVs3TJ8+nctt3LgRjx494t6sKygo5DuyfCkqKpbb1+RPK9lPyD/GwcEBUVFRCA4Ohp+fH/bt2weRSISDBw/i/v37AMBNdY+IiEBsbCxMTExw8+ZNtGzZEhcuXMD8+fPh5eUFsVgMSUnJQic95Bk4cGCBZ8Ly5P2g5c0ey5uMkDdF/9WrVxg8eDDvneP79++xb98+7nNF7gSL/fv3Y/bs2QWm2v+KpKQkWFlZQSwWgxCCO3fu0CWc6tWrQ0JC4pf/0xY1stDT0/ulNxiVnZ6eHjdy8vPzw6tXr7Bu3Tog936eSCSCtbU1t/pL3iMPjo6O6N27d5HfjzytWrXC2LFjAQCampoYP348Ll++jHbt2tGlAICYmBicPXsWAwYMwKFDh374uImUlBR69+4NZWVlnDx5EtWqVaNLOLVr18a8efOwbt06zJo1C3PmzMGkSZOwYcMGmJubY8mSJbz6zMxMPHjwAM2bNy/Rfcn8ympB8ODgYPTr1w/16tWDQCBAs2bNMHDgQCxYsACWlpZ4+fIlRo0aBSMjI+zfvx9ycnKoXbs2kHtV7E8JCQnhPo9/XaVrlNnZ2WjXrh0GDRoEdXV19O7dG8uXL4dQKARyp2UTQrjGlZOTg9GjR8PKygrNmjXD8OHDERcXhxMnTvCmiyspKQEA4uLiuOWdMjMz8ezZM4hEIoSHh0MkEuHq1aswNzfnLllcuHABM2fOhJmZGRwcHODu7o7k5GR069YN27Ztw9ChQ3kz/ACgRYsWWLp0KUJDQ7mYQCDAgQMHICEhgWfPnvHqf4WlpSU6dOiA+/fv4+DBg9i4cSPi4uLoMo5AICh2lFAc+v6WjIwMDh8+jKtXr5bLaiP/Ii8vLzg5OSEpKQlr167lRk15I/SGDRty97wiIyNx/fp1dOzYEb179+bO0aFDB+7P+dWtW5f3ukqVKnB2di7wXGaeWrVqYe7cuWjWrBmdKpK2tnaJly6sX78+HSqSjIwMBgwYgLZt29KpH8r/TGdpqlq1KpSUlDBkyBBs2rQJ58+fh4eHByIiIpCSkgJfX1/cvHkTVlZWWLp0Kbp168btDPKnGmVCQgKys7P/2KXf8lbpGqWfnx/atm0LkUiE4OBgPHnyBA4ODjA2NgYhBAKBgPtAbuM8c+YMunbtiu/fv8PLywufPn3Cli1bCl3DsXr16nB2dsaGDRvg4eEBKSkp7Nu3D6qqqhAKhRg3bhymTp3KLZg8d+5cnD17Fhs3boSOjg6EQiHatWuHS5cuYe3atWjdujXv/FlZWdxDyoU9PrF169YCMwl/lqurKwIDA7F161YMHjwYXl5eOHTo0A/vRXl6eiI1NZUO/1D+RqmmpgZPT08YGBjwapif061bNwwfPrzAfb1evXpBKBRCKBSiZcuWQG7jGzt2bIFHMdiEKr6fXWygpGrVqgV7e3ucOXMG69evx9SpU9GzZ88Cb0jyq1mzJgQCwR9bc/XNmzfAH7xHWt4qXaPMmxQgFAq5EeWQIUNgYWEBgUDAjSbzRpQpKSnYu3cv2rdvj7CwMLRu3RpNmzbFunXrCl02SiAQYM2aNdi0aROEQiHevHmDpUuXcvc1JSQk0LRpUzRu3Jg+lCMWi3H37t1CH8SWlpZGcHAw9u3bx4sTQrB27Vp07doV7du35+KxsbEwMzPDnj17cPXqVVy4cAHPnj3Dvn37Cm1qz549g4uLC2xsbAAA/v7+SE1NRadOnehSHkIIFBQUYGJigrFjxxZ7v4qW1ygHDhwIHx8fdOzYkS5hGCYfgUCAbt264d69e3SqXNy7dw8CgQA9evSgU/+kStcoAcDAwIA3ojx//nyRz4Ht2rULHTt2hKysLDw8PCAvL49Pnz5h/fr18PLyost5Ll++DGlpafTv3/+nVrDYtWtXsWtQjhgxAoaGhtzr5ORkrFixApMnT8agQYN4tTVq1MDixYthaGiI7t27IyIiAt27d8fy5csLzA6MiYlBcnIytm7dCikpKeTk5GD16tXYs2cPr64wOTk5aNmyJfbt2wcjIyNMmzaNLimSpKQkTE1Nce/evQJrfjIMUzg9PT28f/++0AmJZe3evXs/HPX+Syplo1RQUOBGlFpaWujVqxc3YSBvNCkWi5GUlAQTExPe5QVCCDQ1NbF582Z07dq1yAZobW2N6OhozJgxg04V6/Xr11BSUuKNCovj6emJMWPGYPXq1UXed8m7nyElJVVsI6pVqxa3HBYhBMbGxrCwsIC6uvr/tXfn8VRn/x/AX5a0TNq00JiWiajJ1AwzlUlpr6nRTDVUUzOttGpTGhSVlBqSLS1jNJWSUVKUzHCpUAlDTYQ2ZSm7LNdyz++PL5+fz7GEEO55Ph4eD5/3+9xLru7bOZ+z0E2rqbo7yrhx4+Dm5sbL1+XPP//kevQMw9SPrq4uULF5Q0uKjY1FREREjSNe7ZVYFsqqb8iVn0tISGD06NEYMGAAJCQkICkpCVlZWcjIyFR55P8WYd+8eRNnz55Feno6Xrx4AScnJ27hb3FxMVxdXTFy5Ej88ssvCAgIAIAahzlpHh4eiI+Pr3MhNgD4+vqiqKgIe/bswcmTJ3Hx4sUaJzSIRCL4+PhAIBDg2rVr8PPzQ0FBAXeEkpOTU40z+YqLi7Fp0yb8/PPP9d75g54mXjm5qT4q75UxDFN/AwYMwNy5c3H48OF6n2rSFLZv346ePXtixYoVdKrdEstCWVVeXh6uXLmCLl264KuvvkLXrl1RXl5erXcTFRWF169fo6ysDO7u7vjpp58gLy+PgQMHIiAggJt0Exsbi6VLl+KLL76ArKwsN8xZ1wSb8PBwnD17FuPGjcOCBQvodDXdu3fHsGHDoKqqWuf0eUlJSZSVlSE7Oxvq6upYuXIl1q9fz03mWLduXbVZpVFRUTh8+DDMzMxq7aHWpCX/ozIM8z82NjYoKSmBpaUlnWoWERERuH79Onbt2lXr+067RCglJSVk7ty5dLgaOzs7oqenR4fbhJcvXxJCCDE1NSX5+fkkLS2Ny508eZL06tWLa0MIIdu2bSNCoZDk5ORwMUII8fPzI35+frxYTVJTU0l2djYd5qSmptKhD0IoFJLw8HA6XC8BAQGkoKCADrcJv//+O/n222/p8Dulp6eTFStW0GGGaVGbNm0iUlJSJDAwkE41qdzcXKKsrEwGDhxISkpK6HSbERQURGxsbOhwncSyR1k5Dd7S0hJdu3bl3ZBesWIFMjMzeVPlDx48CBkZmWrDiaNHj+bWX9ZFXl6+ziN6WssUaxkZmVp3QHmXKVOmVJscxDBM87OyssJnn32G77//Ho8fP6bTTaK8vBw6Ojp4+fIlLl68+M4jydobsSyUTaVXr17Vhi4ZhmFaUufOneHv748ePXpgxowZ732qSU0WLVqE4OBgbmtJccMKJcMwTBsnLy+Pv//+GyKRCKNHj26ywxFev36NMWPG4MKFCzhz5gx3kom4YYWSYRimHVBWVkZUVBRGjhyJyZMnw8zMrF6z7Wvj4eGBL7/8EgkJCQgLC8NPP/1ENxEbrFAyDMO0Ez179kRwcDCcnZ3h6OgIJSUluLm5cVtm1kdwcDA3A3/q1KmIj48Xmx14aiNBqBXzpaWlWLBgwTuPajpy5AjCwsJw/vx5OsUwbYqrqyu8vLzg6+tLp+r0+vVrmJiYNOkBvgxTX1evXqVDPHl5efjjjz+4U4ZUVFSgpqaGXr16oXv37ujevTsKCgqQl5eHnJwcPH78GA8ePEBRURGUlJSwZs2aOjeynz17Nh1qEwQCASIjI7FlyxY6VTt6Gqw4LA9hmKrY8hCmLdq2bRsB8EE+NDQ06G+nzWjM8hDWo2TE3sSJEzFmzBjs37+fTtWJ9SiZD+nRo0d0qF4yMjKQk5ODvLw8dO7cGT169ECPHj0aPIO/re6oxXqU7VhQUBAZOXIkHWbek5ubGwFAPDw86NQ7sR4lw7Q9jelRssk8bYhQKKRDzHvIycmBkZERJk6cyG0wzTAMQ2OFkhFbJiYmyM3NZUOnDMPUiRVKRixFRETAxcUFxsbGdR6izTAMwwolI3YIIVi+fDkUFRVhZmZGpxmGYXhYoWTEjouLC2JjY3Hs2DF07NiRTjNMs8rKykJSUhId5ikoKOAdXZeSksLLN5eMjAwEBQXR4Vrl5OTQoXaJFUpGrGRkZMDExARz5szBzJkz6TTDNIvk5GTu87t37+L+/fu8fFZWFu/68uXL2L17N3e9e/du5Obm8trU5vnz5zA3N692mPq7lJaWIjk5GU+fPsXFixfpNE9OTg7i4+ORnJwMKysrOt1gZWVluHDhAkpLS+lUjY4ePQo/Pz863GxYoWTEipGREYRCIRwcHOgUwzSLsLAwXLx4EQKBAAKBAIWFhZCSkuKunZ2doaamhqKiIu4xV65c4d0WkJCQ4I75KyoqQlhYGJejDRw4EIWFhXUeFk8jhODy5ct49OgR3r59i7lz53K5zMxM/PXXX3B3d0flsvsePXrAzc0Nubm5MDExqfJMjSMtLQ0/Pz+8ePECqMdB8FpaWggJCaHDzYYVSkZshIaG4tSpU9i1axc++eQTOs0wzeLcuXNYunQptLW1oa2tjS5duqCoqAja2tqYMGECPv/8c7x69Ypb8F9UVITevXsjJSUFAoEA169fh6+vL1xdXSEQCODj44PAwECux5iQkEB9RaBbt25ARS/xzJkzCA8PBwBERkbi4MGDOHv2LHx8fCAQCODl5YVbt27B1tYWpaWlMDQ05D2XnJwc5s+fj7dv3yI9PZ2L79+/H+PGjcOrV68gEol4j2moly9fory8HFeuXIGFhQWUlZURGRlJN+NISUlBSUmJDjcbVigZsVBeXo7ly5dDRUUFW7dupdMM02zs7e2Rn5/P9SBjYmLw8uVLCAQCXLx4ETExMbz2Tk5OKC0txahRo6Ctrc0Ny0pJSUFbWxt6enowNTXleoz+/v4wNjaGv78/XFxcsGHDBri7u0MgEOD27duQlJTEw4cPAQBffvkl1q9fj59++gk6OjrQ1tbGvHnzMHjwYHTt2hW//PIL73uJjY1FcHAwAEBfX7/aIfMvX75EbGwsJCUbX0rKy8uxa9cu2NvbY9OmTZg8eTJ+/PHHOs+9JIRASkqKDjebxv/rGKYNsbOzQ3x8PFxdXcXudHbmw1NUVOR6lMOGDYOGhga0tbUhFAoxefJkrl16ejo6dOiA/v37AwBEIhHCw8Mxa9YsqKur4/jx41We9X/Wr18Pa2trTJ8+HUuWLEFubi709PS4r7do0SKsWLGCa9+lSxfe4wHg4MGDsLS0pMNQU1NDWVkZ9PX16RQeP34MPz8/zJgxgxf/559/cP36dRw6dAjm5uaws7PDmjVratxyjxACFxcX7Nu3Dz179gQqvhdTU1O6KY+EhARu3ryJjRs3wtDQEC9fvqSbNClWKJl2Ly0tDTt37sSiRYugqalJpxmm2RUXF3M9ytu3byMhIQECgQD9+/fn7vsBQHZ2NvT09Lge2vHjx2FsbAwAGDFiBMLCwnDv3j2ufVWFhYUwNjaGo6Njg3pbd+/eRW5uLr7++ms6BQCYPHlytQIdFhaGxMTEGguokpISunXrhg0bNiArKwubNm3C0aNHa9wbNj4+HgYGBlBQUAAqhqnV1dUxYMAAuilPeXk5NDU1ceTIEcydOxfjx49Hamoq3azJsELJtHuGhoaQlpbGkSNH6BTDNDt7e3scOHCAK5R37txBfHw8d3369GkoKyvj/v37UFVVBSp6WomJidDQ0MDHH3/MPdfOnTuxdu1aBAYGVvkKQG5uLlatWgVTU1Pu/mR95OXlYc+ePXB2dqZTNSooKICRkREKCwvx7bff0mmgYjKRpqYmOnXqhL59+9JpHlVVVUhLSwMV91oDAwNhbm5ON6um6uxYbW1t3LhxAzIyMrw2TYkVSqZdCwoKgqenJywtLdG7d286zTDNztDQEBYWFrCwsICxsTGGDx+OsWPHYtq0abCwsMC+ffuQkJAAdXV17jESEhIoLS1Fhw4dIBAIuIk9ly9fhouLC65evcoVi0ePHsHV1RUuLi5cr6qkpIR7rtpERERgxYoVOHLkCD766CM6zUlISAAhBD4+PliyZAlWrVrFGy6uqnIJS1lZGbd8xMHBgft3vnr1in4IUPG9ODg4wMnJCRISEnS6mqozhFHRi5WTk+PFmhIrlEy7VVpaipUrV0JNTQ3r1q2j0wzTotLS0mBmZob9+/dDT08P9+7dg4mJSY3FQyQSYdiwYRg5ciS0tbWhoKAAbW1tbN68Gerq6rC1tUWHDh3w+PFj5ObmYvPmzZCVlcXAgQOxadMmhIaG0k/JefHiBfbv34+goCCcO3cOQ4YMoZvwFBcXY8SIEfD398eFCxegoqJCN+EEBwdj69atOHr0KPLy8uDs7IwNGzbAwsICmzZtQnl5Of0QeHh44P79+7C3t693rzA/P58ONS/6OBF2zFbrFBQURFRVVekwU4c9e/YQAOTevXt0qkmwY7aY+khOTiZXrlwhf/zxBxEKhbxcdHQ0+e6778i2bdu4WGpqKtm9ezevnb6+Pu+6LkKhkAQHB9NhzpMnT+jQOz179oyIRCI6/N6ePn1KioqK6PA7PXnyhAQEBNDhemHHbDFMheTkZOzbtw8rV66EhoYGnWaYFqOoqIjZs2dj6dKl1XpMI0eOhI+PDw4ePMjF5OTksHr1al67nTt38q7rIiMjg/Hjx9NhzuDBg+nQOw0cOLBeQ6INNWjQoAZtjFBp8ODBmDJlCh1uNqxQMu2SgYEBOnfujEOHDtEphmnVOnToUG0SjKKiIu+aaVmsUDLtjre3N65du4ZDhw6hR48edJphGKZBWKFk2pWioiIYGhpCQ0MDK1eupNMMwzANxgol067s2bMHKSkpcHV1pVMMwzCNwgol027Ex8fDxsYG69atg5qaGp1mGIZpFFYomXZj+fLlkJOTq3HPSoZhmMZihZJpF9zd3REaGgpbW1vIysrSaYZhmEZjhZJp8/Lz87Fx40Zoampi4cKFdJphGOa9NLpQDhw4EFlZWSgoKKBTDNOizMzMkJubyybwMAzTLBpdKDU0NBAVFYUffvjhvU+3ZpjGio2NhZOTE4yMjOrcg5JhGKaxGl0oFRUVce3aNYSEhMDIyIhOM0yLWL58Ofr379+gLb4YhmEaotGFEhW9yrNnz+Lw4cP4448/6DTDNKuTJ09yx/N07tyZTjMMwzSJ9yqUADBv3jxYWFhg1apVCA4OptMM0yxycnKwbds2zJw5E3PmzKHTDMMwTea9CyUAmJub4/vvv4eOjg4SEhLoNMM0uW3btqGoqAjHjh2jUwzDME1KghBCqgZKS0uxYMECeHl5VQ2/k1AoxLhx45CRkYHIyEj07NmTbsK8B4FAgDVr1uDRo0d0SuxERETgq6++wt69e2FmZkanW8zr169hYmKCkydP0imxl5KSgujoaGRmZiIzMxNv375Fz549IScnh759+2LMmDHo0qUL/TCmmdy+fRupqanc6yEjIwM5OTnIyclBVVUVQ4cOpR/SbgkEAkRGRmLLli10qnb0AZX1Pbi5Jm/evCGKiopk7NixpKSkhE4z74Ed3Pw/ZWVlRE1NjXz66acf/HeMHdzMl5qaSqytrYmmpiYB8M4PHR0dcubMGfppmCZy9epVsmTJEtKjR49qP3v647PPPiMmJibk0aNH9NO0Ox/84ObevXvjxo0biImJwdKlS+k0w7w3JycnxMbG4uTJk+jQoQOdZj6ArKwsbNu2DYMHD4axsTFevnwJU1NThISEIC4uDpmZmSCEIDU1FTExMfD19cWKFSsQGBiIxYsXQ1FRkQ2hN6HLly/j888/x+zZs3H69GlMmDAB586dQ2RkJJKTk0EIQW5uLhITExEWFoZDhw5BRkYGVlZWGDZsGBYvXoynT5/STyve6Mr5Pj3KSjdu3CCSkpLE2tqaTjGNxHqU/xuxkJWVJbq6unTqg2A9SkI8PT2JrKwsAUDmzp1Lbt68STepk7u7OxkxYgQBQJSVlcl///1HN2HqKScnh0yePJkAIPLy8sTOzo7k5OTQzWoVFxdHDAwMuF7mzp076SbtQmN6lM1SKAkhxM7OjkhISJArV67QKaYRWKEkZNGiRURWVpakpqbSqQ9C3AultbU1AUAmTpxIHj58SKcbxNvbmygoKJBu3bqRoKAgOs28Q1JSElFRUSGdO3cmR48epdMNkpaWRpYtW0YAkEWLFtHpNq8xhbJJh16r2rhxI5YuXQpdXV3ExMTQaYZpkNDQULi7u2P37t2Ql5en00wL27BhA4yNjaGvr4/AwEAMHz6cbtIgc+bMQXR0NFRVVTFx4sQGTyYUZw8ePIC6ujry8/MRGhqK1atX000apF+/fnB1dYWDgwPc3d0xYcIEFBUV0c3ESrMVSgA4ceIEvv76a0yfPh1paWl0mmHqpbS0FMuXL4eKigoMDQ3pNNPCDh8+DEdHR1haWjbpvcW+ffvizp070NHRwfz58xEeHk43YSgZGRmYNWsW5OXlERUVhVGjRtFNGm39+vW4ceMGQkJCsGTJEjotVpq1UEpJScHHxweysrKYPn262P9VwjSOjY0N4uPj4erqCikpKTrNtKCAgAAYGRlh2bJlMDU1pdNN4vz58xg1ahR0dHSQnJxMp5kKQqEQM2fORH5+Pq5du4a+ffvSTd7b1KlTcfr0aXh5ecHCwoJOi41mLZQA0K1bN9y4cQPJycnQ1dUFtWyTYeqUnJyMPXv2YNmyZdDU1KTTTAvKy8uDnp4etLS0cOLECTrdZDp37gw/Pz9IS0tj1apVdJqpYGVlhX///Re+vr4YNGgQnW4yixcvhrGxMXbv3o0HDx7QabHQ7IUSAAYNGgRfX1/4+/s321+hTPtkaGiIjh074uDBg3SKaWFWVlYoKiqCh4dHs/fsFRQU4ODgAH9/fwQFBdFpsffmzRtYW1tj06ZNGDt2LJ1uclZWVlBVVRXbWx8tUigBYOzYsXBzc8P+/fvh7u5OpxmmmmvXrsHb2xsHDhxA79696TTTglJSUmBnZwdDQ0P069ePTjeLefPmYeTIkWL75lyXX3/9FZ06dWqxjoekpCQsLS0RFBQEPz8/Ot3utVihBIBFixbB2NgYS5cuRVhYGJ1mGI5QKISBgQE0NDSgr69Pp5kWduzYMXTq1AkmJiZ0qlkdPHgQDx48wK1bt+iU2CosLISbmxu2b9+O7t270+lmU/mHi5OTE51q91q0UALA/v37MX36dMyaNQvPnj2j0wwDANi3bx9evnwJV1dXSEhI0Gmmhfn6+mLevHkt+sYMANOmTUP//v3h6+tLp97Jw8MDkydPRlJSEp1qFb7//nvs3LkTxcXFdKpO165dQ3l5+XsvA2kMfX19/PPPPxAKhXSqXWvxQikhIYELFy7gk08+wbRp05CXl0c3YcTckydPcODAAaxduxZqamp0mmlhGRkZuH//PsaPH0+nWsTEiRMbVCjj4uIwadIkLFiwAEKhsMWGihtKSUkJlpaWUFJSgoeHB52ula+vL1RUVNCrVy861ewmTJgAoVCIv//+m061ay1eKFExq83f3x/5+fnQ0dFBeXk53YQRYytXrkT37t2xf/9+OsV8APfu3QOAD/ZHi5qaGmJjY1FaWkqneHJzc2FoaAg1NTU8fPgQbm5uuHXrFrp27Uo3bRV+++033L9/H/369cOCBQswbtw4xMXF0c2qiYyM/GCvxfDhwyEhIYHIyEg61a59kEIJAPLy8vD398fdu3fZFHCG4+npiaCgINja2kJWVpZOMx9ASkoKAEBRUZFOtYjKr1vbpiWEEBw/fhxKSkpwdnbGmjVrkJCQgF9++YVu2up8+eWXiIiIwPHjxxEXF4cRI0Zgw4YNyM3NpZtyUlJSPthrISEhAUVFRaSmptKpdu2DFUoA+Pzzz3HhwgW4ubnBwcGBTjNipqioCIaGhtDU1BT7nUBak9TUVEhLS6NPnz50qkV8/PHHQJWCXdWdO3fwxRdfwMDAAEOHDkVkZCTs7e3RrVs3ummrJSEhgVWrViExMRErV66Es7MzhgwZgmPHjkEkEvHaEkKQkZHB/Uw+hI8//rjG16I9a7KDm9/HgQMHYGpqiuvXr2Pq1Kl0mhGTg5uNjIxgb2+P2NhYqKio0OlWR1wObt66dSvc3d0/WC/i0aNHGD58OHx9ffHtt98CFUXTyMgI586d49pNmDChyqParvj4eK73PHLkSDg6OmLcuHFAxf3iPn36wM3N7YP1mOfMmYOsrCzcvHmTTrUJjTm4+YP2KCvt2LEDCxYswA8//NCuCwFTu/j4eNjZ2WHTpk1tokiKk169eiErK4sOt5jKr92jRw8uJiEhwettKSgocJ+3dXJycrzrqrO+5eTkICEhgYyMDF6blpSdnc17LcQCfZxIUx2z1VAlJSVk7NixRFFRkbx584ZOi732fsyWpqYmkZeXJ4WFhXSq1RKXY7ZOnDhBAJCsrCw61SI8PT0JAJKUlESnSHh4OPnss8+IpKQkWb58OUlPT6ebtBmlpaXExsaG9OjRg8jJyREXFxdSXl5ONyO9e/cm27Zto8MtRklJiaxcuZIOtxmt6pithurQoQN8fX0hLS2NmTNnit06HXF26tQphIaGwsnJCZ07d6bTzAdWudl2bZNpmlvlkO8nn3xCpzB69GjExMTA2dkZPj4+UFJSwoEDB9rc+8eVK1cwfPhwbN++HYsXL0ZSUhIMDAwgKVn9Lbpv374f7LVAxbC3uB11V/1V+IB69uyJGzdu4PHjx/jpp5/otNhTV1enQ21eTk4OjIyMMHHiRMydO5dOM62AhoYGAODu3bt0qkXcuXMHqqqq6NChA50CKrZXMzAwQGJiIn755ReYmZlh2LBhLTrPorHi4uIwZcoU6OjooG/fvnjw4AEcHBzq3NhBXV39gx1B9vDhQxQWFrbL96K6tKpCCQDKysrw8fGBt7c39u7dS6fFlra2Ns6cOUOH2zwTExPk5+e3+wkxbVn//v3x5ZdfwtPTk041u9LSUvj4+EBHR4dOVdO9e3c4ODjgwYMHGDhwIObPnw9tbe06l1p8SKamphg2bBji4uJw/vx53Lp1C6qqqnSzanR0dJCQkIDY2Fg61ew8PT0hIyOD6dOn06l2rdUVSlTMXjtx4gR27drVJv4qZBonIiICLi4u+PXXX/Hpp5/SaaYVmTNnDvz9/ZGYmEinmpWbmxvy8/MxZ84cOlUrVVVVBAUF4fz585CUlERmZibdpFWIj4+HmZkZEhMToaenR6dr9e2330JGRgaOjo50qlmVlJTg2LFjmDZtmvjdIqFvWn6oyTw12bhxIwFA7t27x4s/fPiQd820Dba2tiQ/P5+71tDQIJ9++imvTVsiLpN5CCEkLS2NdOrUiSxevJhONRuhUEg++eQTMmLECDol9vT19Ym0tDR5/vw5nWo2dnZ2BAC5fv06nWpT2vRknprY2tpi6tSpmDlzJl6+fAkA8PPzw+jRo3Hnzh26OdPKWVpaQkVFBefPn4eLiwsiIiLYkGsb0a9fP2zcuBHu7u4t1qs8efIkkpOTYW9vT6fE3p49eyAtLQ1zc3M61SyKi4uxd+9eaGpqit2wK1rr0GslSUlJXLx4EfLy8pg1axbMzc0xa9YsvH37lh270wZlZWUhJSUFCxcuxJo1azB//nxMnDiRbsa0Ur/++itkZWWhq6uLgoICOt2kHjx4gB07dmDq1Knsd6QG/fr1w5YtW3Dq1Cn4+PjQ6SZFCMHPP/+MzMxMsd1BrVUXSgDo2rUrLl68iJiYGOzZs4eLt9VdIcRVTdPZ//rrL+zYsQOFhYV0immFunfvjgsXLiA2NhY6OjooKyujmzSJlJQUTJkyBT169ICbmxudZirs3LkTY8eOxY8//tisHQdjY2N4enrCzs4OX375JZ0WC62+UKalpdW4VIQVyrblzZs3dAgAYG1tjaFDhyI0NJROMa3QtGnT4OHhgcDAQPz4449N/kfOs2fPMGnSJIhEIgQFBaF///50E6ZCp06d4O/vDzU1NcyaNQtBQUF0k/dmZmaGQ4cO4ddff8XGjRvptNho1YUyKioK6urq3DE/VWVlZb3X9Oj63OMMDAxE5Va4eXl59ToCpyn4+fnVWlhoeXl51TZObo3S09PpEFDxn33NmjX46quv6BTTSs2dOxeenp7w9vaGlpZWk22QHRISAnV1dRQUFEAgEGDIkCF0E4bStWtXBAQEYOTIkZg0aVKT3fMvLi6Grq4u9u3bh507d8LKyopuIlZadaHs168ffvrpp1r3FWxIr7JyMlCl06dP865v377Nu87NzYWFhQW3Buvhw4c1FuyalJSUwMbGBv/++y+deqe4uDh8/fXX71xDWlpaiqNHj0JaWhrLli1DUVER3aTBbt68iSdPntDhGsXHx2PdunX1XqNWU+HX0tLCw4cPYWpqWuticqZ1mj9/PiIiIpCcnAx1dXWcPXuWblJvhYWF2LlzJyZMmIARI0YgOjoaw4cPp5sxtejZsydCQkKwYsUKrFq1CkuXLsXr16/pZvV269YtjB49Gp6enrhw4QLvlpe4atWFsn///jh48CCSk5Nx5MiRamvtQkJCeNe1IYTA2NgYFhYW3EdZWRnv+ueff4ZAIOAec/XqVaxZs4Yr0oQQrncJANevX0d+fj53XZWMjAxUVVWRk5NDp+oUGxuLV69eYdmyZdVm+gkEApibm3N/vXfo0AHz5s2DlZUVTp061STrmlJTU3H16lWg4s2ruLiYbsJRUVHB69ev0alTJzpVo6qFslevXnB1dUVISEi115RpO9TV1REXFwcdHR0sXrwYY8eObdDw39u3b+Hm5gZlZWU4ODjA2dkZwcHB1TYFZ+rn5MmTuHTpEgQCAQYPHgwrK6sa/0CtTXR0NPT09KClpYV+/fohMTERP/74I91MLLWKY7bqSyQSwdvbGzY2NggNDYWCgkK9hn2Cg4ORkZGBefPmcbFFixbB3d0dqJhUMn78eG5PSwBYsmQJDhw4gISEBKDil5AQglWrVoEQgps3b2LcuHGYNGkS4uLiuB01srOzERMTg4iICHTu3BnDhw/Hf//9BwBYu3YtSktLYWBgAAUFBaiqqkJRURGFhYXo0qULQkNDcffuXXh5eUFaWpr7Xio9f/4cERERvH8HKt5wnj17hhEjRvDiDVFSUoKZM2di8eLFeP78OYKCgqClpQVLS0u6KWfr1q2wsbGhwzUyMzPDvn37sHDhQtjb26N37950kzZHXI7ZQsW9w7o8ePAAu3btQlRUFLp06YIxY8ZAQ0MDKioqGDJkCPr164ekpCQkJSXh8ePHCA0NRVRUFFDROzUxMUHPnj3pp+UMGjSIDomtd70WQqEQjo6O3IYEQ4cOxbhx46CqqgolJSUMHToU+fn5SExMxOPHjxEdHY3Q0FBkZmbi448/hpmZGWbMmEE/LaetvxaNOWarVW84UJc7d+4QXV1d8uzZMzpVo7KyMhIUFMR9fP/999znu3fv5i3cjY6OJoqKitxJFkVFRWTixIlk8+bN5MGDB1We9X/u379PpkyZQlauXEnMzc2Jo6MjUVFRIWFhYYQQQgoLC8m9e/d4i+1rsmjRIpKTk8OLZWZmEh8fH5Kdnc2LV8rOzibr1q0jxcXFdKpB1q1bRzw9PQkhhIhEIjJz5swaTy6oavv27XSoVpaWlsTf358Ot2nitOHAsGHDCIAP8mFubk5/O2Lt1KlT1X5GLfXRsWNH+ttpcxqz4UCb6lG+r3///RfZ2dkAgCNHjmDjxo3Iy8tDWFgYrKysuHPfDh8+jMTERDg5OQEAzp07h969eyM1NRVJSUnYvXs373lpjo6OkJeXh6KiIsaMGUOnaxQTEwMfHx+YmZnRKQiFQpiYmGDbtm28XfvfvHmD7du3w9ramtcbvn37NgICAjBkyBBkZ2dDWloaqampUFBQwNq1a7l2lWxtbTFo0CBuU3IvLy8UFhZiyZIldFOeLVu2YPbs2fj333+hrKyM2bNn003aNXHqUTZmn1ehUIi3b98iPz8fxcXF+OijjyArK1vrnIO6sCHA/9eY1wIA8vPzuQ9paWnIyspCVla2wbdt2vprIVY9yvdRVlZG1q1bx4tlZmZyn+fm5nL5p0+fkrt375LQ0FDy559/koCAAOLk5FTlkXxeXl4kISGB+Pv7cz3KdykvLydLliwhRUVFdKpWkZGRxNDQkLx9+5ZOkZKSEu7sQBsbmzp73eHh4eTp06fcdXZ2NtHX1ycikYjXriYbN24kpOLnqaenR44dO0Y3adfEqUfJMO1FY3qUrXoyT1N58eIFBAIB9+Hm5oaMjAz8888/XMzCwgK///47AKBbt25AxV/Ejx8/5i1dmDBhAmJiYmBkZFRtwfW5c+cwcOBAKCkp8U4lfxcrKyvs3Lmz3hNjbG1t4eDgAFtbW3z00Ud0Gh06dODu90hLS6NXr150E87o0aO5ew4ikQguLi6ws7Or1/dfUlICAJCSkoK7uzvGjx9PN2EYhmnzxKJQDhgwANra2tDW1saECRMQHR0NFxcX+Pr6QkVFBdra2rC3t8eKFSt4j4uMjMSoUaMgEAgQFRWFuLg4XLx4ETNmzEDv3r0RExMDVBSM//77D7Nnz8aIESNQXFwMQsg7D48tLCzEnj178MMPP0BZWZlOc16/fo2wsDA8e/YMurq6kJWVhaurK6SkpOimiIuL46aGp6WlITk5GYcOHYKFhQXMzc2rzaatVFhYCGdnZ6xfv77eQzFVZ8VKSkrW64gghmGYNofuYrbnoddXr14RIyMjkpycTAghJD8/n2zYsIHs3LmTREZGktLSUq7t2rVrqzySkNu3bxM3NzderNLr16951wkJCWT8+PHk9u3bvHilkpIS4u3tTTw8PEhJSQmdrpGenh4ZOXIkSUpKolM8QqGQ2NrakpCQEJKQkFCvST4hISHE29u7XsOtVeno6NAhsdLah15LSkpqHJpvbvn5+eTNmzd0mGFaBTb0Wovo6GhcvHgR4eHhOHDgABQVFYGKXS3s7e2hra2N33//nbfRMz2kKSkpWS1WqU+fPrxrJSUlbh/GmuTk5GDWrFnQ1dWt90L78+fPIzo6+p3rDmVkZLB582ZoaWlBSUkJHTt2pJvwPHv2DMrKypgzZ069hlur+u677+gQ04yq/n5GR0dj3759vDwtJCQE69at46537NjBLVV6l5SUlEZNGhGJRCCEwNvbm7uVUZsnT54gMTER//77L44dO0anG6VyyUl9XLlyBQ8ePKDDLcLX1xepqal0mOfMmTO4f/8+d3358mVevrlERUXB0dGxXjt+lZWVITIykg63O2JRKEeNGoW5c+di7ty5NQ5XTpo0CY6OjujevTsXO3jwIK/NmDFjMH/+fF6sLlOmTKm18PTp06fGdZIfwqBBg3gzaRti5cqVdIhpJrm5ufjtt9+4e+pxcXH46KOPuGtfX19MnDgReXl53GMuXboEExMT3vNU3Tu1rg0x+vfvj8DAQN7z1cfr16/h4eEBaWlpbhZ1pczMTN7OT59++il+++03vH37FpMnT+a1bSw3N7d6bU8JABoaGrCwsKDDzYIuJteuXYOCggJ3HRcXh1evXvHa2NnZ8eYXXLt2jZevy9WrV2FqakqH3+nNmzdISEhAaWlptd3MaPHx8QgODkZ2djaCg4PpdIOlp6dj165dvI1dapOVlYUlS5YgPDycTjULsSiUDNPW7d69Gz/88AN3r11VVRUfffQRd923b1/89ddf3EQ0kUiEN2/eoKysjCum4eHh8PX1hUAggJeXF5YtW8YVwpp2merfvz/3fGlpadzmHo8ePYKFhQV+++03eHl5QSAQ4NKlS7h58yYWLVqE9PR0fPPNN9U2EJCTk8PRo0d5vTgbGxt8+umnGDRo0Dvv6b9LWVkZkpKSEBERAQsLC3zzzTeIjo6mm3FkZGTea5OOhnB2duZNKOzTpw+8vb25a1tbW96uRs+fP4eSkhIGDx7Me55KFy5cqHNnstmzZ9fYKUDFpij43203oGKOxZMnT+Dv7w8rKytkZGRgzpw5GDBgAPeY8vJyhIeH4+jRo1xMRUUFV69exeTJkzFhwgQu3lgdO3ZEbGwswsLCIBAI4O/vTzfh9OrVC2pqatV+x5qLWK2jZJim1JLrKHNzc1FcXIxHjx4BABITE5GYmIgZM2YgLy8Pt27dwoEDByAp+b+/fc+cOYO///6bO6bq4cOH+OKLL+Di4oLly5fznhsA9u/fj5KSEnz99ddIS0tDUVERjhw5goULF3JtBg4ciGXLlgEAwsLCqt1aKCsrw/fffw8fHx/u+0DFm76cnBy6du3Ka19JJBLBy8sL8+bN4z2uoSwtLTF58mSMHTsWmZmZ2LBhA7f7Vk0yMzPx+++/Y/v27XSqSRUWFuLMmTPQ19fnYuvXr+d2zgkPD4esrCw+++wzLr9nzx5eIbh06RICAgJgZGTE3X7p2rUrNDQ08OLFC2RnZ2PkyJEoKSlBZGQkiouLsW/fPnzzzTdAxXDqrl27oK6uDm9vb7x48QK9evVC3759ISMjAzk5OSgoKGDu3Lk4c+YMr0hWdePGDUybNo0OIzIy8r2P4DIxMcHo0aPRvXt3REVFISAgAJcvX6719tTBgwexfPnyBu/yJWDrKBmm5XzIyTx37twhp06dIoQQEhcXx1sLW1paSiwsLHhrhbdv305Wr15N/v77bxIYGMjFq8rNzeU+X7p0KTEwMODl3+X06dPE29ubDpPi4mLi5ORU4w47paWlxNramuTl5fHiISEhRCgUkvv375NLly4Re3t7smbNGnL37l1eu0rXr18nPj4+3LW5uTmJjIzktaFlZWWRBQsWEGNjY3L27FkiFArpJk0qOjq6xp3BgoKCyH///ce1y87OJsrKyrzJgAsXLiTLly+vcQ23SCQiv/32G7G1tSVBQUHk/v375LvvvuN+3mVlZSQ+Pp48efKEfiiPqakpiYmJocMkICCA/Pnnn6SsrIxOEUIIOXbsWLUdxWpCT3qs6saNG+To0aPc9dKlS0l6ejqvDe3gwYPkypUrpKCggE7ViU3mYZh2TCQScUN1t2/fxrNnzyAQCBAcHMw7z/PFixcwNjbmrsPCwqCtrY3u3btDXV0dV69erfHUl8phVnt7e6xevRoff/wx3aRWeXl5CAoKwpw5c+gUOnbsiLVr10JXV5cXLygowB9//IH169dDVlaWlyspKcHdu3ehoqKCv/76Cxs2bICzs3ONx7E9efIESkpK3OSypKQk5OXl4YsvvqCb8pSXl+Pzzz/H3r178ebNG4wePZoblmwOtfV89u7dy/v3e3l5Yf369ejSpQtQceze6tWr0aFDB3Tr1g0BAQFVHg1ISEhg69at2Lx5M7S1tXH37l1s27aNG3qVkpLC0KFDax3GRUXvOisrC2pqanQKU6ZMQbdu3eDj48OLE0Jw9OhRfPfdd7z5HU+fPsWmTZvw66+/YseOHVi9ejUOHDiAEydO1HjQwn///QdCCFavXg1UHA6hoKDA222sJoQQyMrKwtjYGLNnz8bTp0/pJk2HrpysR8kw9dOSPcrIyEheD2THjh3EwcGBu/7777/JuHHjeHsRr1u3juTm5pITJ04QQggxNjYm2dnZ5Pnz50RLS4vXC61kbW3N9Qp3795Np2u1bds2kpGRQYdrFRgYSHbt2vXO/YQJIcTCwoIO1aqsrIyYm5vX2vupKjU1lezfv5+7DgoKIvfu3eO1aS5r1qzhXZeWlnI9ruzsbHLixAkSFRVFcnNzyeHDhwkhhBgYGJCysjIydepUEhcXx3t8JXd3d+Lu7k5IA1+/tWvX1rqfdE3S09OJvb39O/evTkpK4n7/alJ1FzFS8fqtXr26Xsvm9u/fz/3MQkJCyNixY+kmNWI9SoZpp7744gtu4o6WlhYyMjKgpKSEkpISaGtrY/Lkybh58ybvPhcq7m1pampCIBDgxYsXuHXrFteLW7JkCQoLC4GK+4s2NjYYM2YMZs6cCVT0YN+luLgY1tbWWLRoUZ3HY1Ue3J2dnY3Vq1cjJiYGu3fvrvGeZOWOT5U6d+6M+Ph4CAQChISE1Pp9FRYWwt7eHtu3b691IktVlRuDVNLW1oaGhgavTVMoLCzkTeTx8/NDWloarK2tuZinpydOnz6NsrIy3l64169fh6GhIXdNCMG8efOgq6tbbRbs8ePHkZWVxbuvXB/Ozs51nvtLO3XqFCwtLbF69epa7ztXkpSU5HrGNam6i5hIJIKzszP27t1b633JqqpO/tLS0qr282hK1X9LGYZptbKzs7Fjxw7s27cPM2bMQHp6OrZs2VJt2KmyAPzyyy8YPnw4tLW1MWDAAHzzzTcwNzeHrq4ubt68iS5duuDly5fw9PTE2rVrMX78eIhEIly/fr3OZRaEEPj7++PChQvYuHEjRo0aRTfhefLkCSZNmoSZM2di69at2LhxI92E8/DhQ7i4uHCzHzU0NLg1hwUFBTXO9oyIiIC/vz82bdpU5xtzVU1x2Hl9dOnShbcz2O3bt2Fvbw9VVVWEh4dDS0sLCxcuxJYtW3jLxnJycvDtt98iJCQEAoEAKSkpuHXrFlRUVHD9+nVuuLaoqAinTp2CpqYmlixZAj8/PxQXF+Pt27dVvovqsrKycOjQIUybNg2ampp0msfLywt37tyBrq4upKSkYG9vX2MxI4QgMDAQAoEAd+7cwd27d5Gamgpra2tYWFjAzMwMGRkZ9MOQl5eHY8eOYdmyZbUOUdPoYdyqw79Nju5isqFXhqmflhx6TUxMJB4eHuTkyZPVJi8kJCQQPT09oq+vzw1likSiahv/Gxsb84a56iIUComVlRUd5kRFRdVrAkdVMTExvMMHmkpYWBjvmLz6SkhIIHZ2dnS42Tx+/JiYmpqSxMRELnb//n0yffp0YmlpSV69esXFjx8/Xm0ykr6+Pu+60p07d3hD2NnZ2WT27Nm8YeWqysvLycWLF8m1a9fqNfRNCCHBwcFEWVmZJCQk0KlqoqOjG/S7ERAQQK5du9bgncEMDAzqnCBUm8YMvbJCyTCN1JKF8vHjx3TonejZrUFBQbxtGpmW8erVK3L16lVy69YtOkVIxX05Ly8v8vDhQy524sSJavchN2/ezLuuy+vXr+t1n/ZDKy4u5s22boioqKhGzVRuTKFk6ygZppFach0lwzBNozHrKNk9SoZhGIapAyuUDMMwDFMHVigZhmEYpg6sUDIMwzBMHVihZBiGYZg6sELJMAzDMHVghZJhGIZh6sAKJcMwDMPUgRVKhmEYhqkDK5QMwzAMUwdWKBmGYRimDqxQMgzDMEwdWKFkGIZhmDpUOz2koKAAkyZNgry8fNUwwzCUgoICDBkyBGlpaXSKYZhWqrCwECoqKnB0dKRTtapWKEUiEQghkJRknU2GqUvFea7s/wrDtCEikQgSEhIN+n9brVAyDMMwDPP/6l9SGYZhGEYMsULJMAzDMHVghZJhGIZh6sAKJcMwDMPUgRVKhmEYhqnD/wHDT8DawadeIwAAAABJRU5ErkJggg==;" vertex="1" parent="1">
                    <mxGeometry x="200" y="80" width="458" height="354" as="geometry"/>
                </mxCell>
            </root>
        </mxGraphModel>
    </diagram>
</mxfile>